<?xml version="1.0" encoding="UTF-8" standalone="no"?>
<svg
   width="50"
   height="50"
   viewBox="0 0 23.076924 23.076924"
   fill="none"
   stroke="currentColor"
   stroke-width="1"
   stroke-linecap="round"
   stroke-linejoin="round"
   class="lucide lucide-anchor-icon lucide-anchor"
   version="1.1"
   id="svg3"
   sodipodi:docname="addonconfigplus.svg"
   inkscape:version="1.4.3 (0d15f75, 2025-12-25)"
   xml:space="preserve"
   xmlns:inkscape="http://www.inkscape.org/namespaces/inkscape"
   xmlns:sodipodi="http://sodipodi.sourceforge.net/DTD/sodipodi-0.dtd"
   xmlns="http://www.w3.org/2000/svg"
   xmlns:svg="http://www.w3.org/2000/svg"><defs
     id="defs3" /><sodipodi:namedview
     id="namedview3"
     pagecolor="#ffffff"
     bordercolor="#000000"
     borderopacity="0.25"
     inkscape:showpageshadow="2"
     inkscape:pageopacity="0.0"
     inkscape:pagecheckerboard="0"
     inkscape:deskcolor="#d1d1d1"
     showguides="true"
     inkscape:zoom="6.91"
     inkscape:cx="57.959479"
     inkscape:cy="43.342981"
     inkscape:window-width="1920"
     inkscape:window-height="1129"
     inkscape:window-x="2728"
     inkscape:window-y="311"
     inkscape:window-maximized="1"
     inkscape:current-layer="svg3"
     showgrid="false"><sodipodi:guide
       position="6.9423732,21.910822"
       orientation="0,-1"
       id="guide3"
       inkscape:locked="false" /><sodipodi:guide
       position="8.2440681,1.1921774"
       orientation="0,-1"
       id="guide4"
       inkscape:locked="false" /><sodipodi:guide
       position="1.1118645,16.514212"
       orientation="1,0"
       id="guide5"
       inkscape:locked="false" /><sodipodi:guide
       position="21.106535,24.279195"
       orientation="1,0"
       id="guide6"
       inkscape:locked="false" /><sodipodi:guide
       position="11.525424,11.822686"
       orientation="1,0"
       id="guide7"
       inkscape:locked="false" /><sodipodi:guide
       position="-2.0067797,11.524381"
       orientation="0,-1"
       id="guide8"
       inkscape:locked="false" /><sodipodi:guide
       position="12.081171,2.2652195"
       orientation="1,0"
       id="guide9"
       inkscape:locked="false" /><sodipodi:guide
       position="24.04542,1.8368029"
       orientation="0,-1"
       id="guide10"
       inkscape:locked="false" /><sodipodi:guide
       position="23.292145,-0.3820702"
       orientation="1,0"
       id="guide11"
       inkscape:locked="false" /><sodipodi:guide
       position="21.390064,-0.21522103"
       orientation="0,-1"
       id="guide12"
       inkscape:locked="false" /></sodipodi:namedview><path
     id="rect1"
     d="m 3.2316781,2.8025257 h 3.0367807 c 0.3364753,0 0.6073561,0.2708808 0.6073561,0.6073561 v 3.0367807 c 0,0.3364753 -0.2708808,0.6073562 -0.6073561,0.6073562 H 3.2316781 c -0.3364753,0 -0.6073562,-0.2708809 -0.6073562,-0.6073562 V 3.4098818 c 0,-0.3364753 0.2708809,-0.6073561 0.6073562,-0.6073561 z"
     style="fill:none;stroke:#000000;stroke-width:1.52307698;stroke-linecap:round;stroke-linejoin:round;stroke-dasharray:none" /><path
     id="rect2"
     d="m 9.9125956,2.8025257 h 3.0367804 c 0.336476,0 0.607356,0.2708808 0.607356,0.6073561 v 3.0367807 c 0,0.3364753 -0.27088,0.6073562 -0.607356,0.6073562 H 9.9125956 c -0.3364753,0 -0.6073561,-0.2708809 -0.6073561,-0.6073562 V 3.4098818 c 0,-0.3364753 0.2708808,-0.6073561 0.6073561,-0.6073561 z"
     style="fill:none;stroke:#000000;stroke-width:1.52307698;stroke-linecap:round;stroke-linejoin:round;stroke-dasharray:none" /><path
     id="rect4"
     d="m 3.2316781,9.4834432 h 3.0367807 c 0.3364753,0 0.6073561,0.2708808 0.6073561,0.6073558 v 3.036781 c 0,0.336475 -0.2708808,0.607356 -0.6073561,0.607356 H 3.2316781 c -0.3364753,0 -0.6073562,-0.270881 -0.6073562,-0.607356 v -3.036781 c 0,-0.336475 0.2708809,-0.6073558 0.6073562,-0.6073558 z"
     style="fill:none;stroke:#000000;stroke-width:1.52307698;stroke-linecap:round;stroke-linejoin:round;stroke-dasharray:none" /><path
     id="rect1-2-8"
     style="stroke-width:1.52307698;stroke-dasharray:none"
     d="m 16.665149,2.7756813 h 3.036781 c 0.336475,0 0.607356,0.2708808 0.607356,0.6073561 v 3.0367807 c 0,0.3364753 -0.270881,0.6073561 -0.607356,0.6073561 h -3.036781 c -0.336476,0 -0.607356,-0.2708808 -0.607356,-0.6073561 V 3.3830374 c 0,-0.3364753 0.27088,-0.6073561 0.607356,-0.6073561 z" /><path
     id="rect4-6"
     style="stroke-width:1.52307698;stroke-dasharray:none"
     d="m 3.2249168,16.185038 h 3.0367807 c 0.3364753,0 0.6073561,0.27088 0.6073561,0.607356 v 3.03678 c 0,0.336476 -0.2708808,0.607357 -0.6073561,0.607357 H 3.2249168 c -0.3364753,0 -0.6073562,-0.270881 -0.6073562,-0.607357 v -3.03678 c 0,-0.336476 0.2708809,-0.607356 0.6073562,-0.607356 z" /><g
     style="fill:none;stroke:currentColor;stroke-width:3.23804;stroke-linecap:round;stroke-linejoin:round;stroke-dasharray:none"
     id="g7586"
     transform="matrix(0.69524349,0,0,0.69524349,6.7973097,6.8433961)"><path
       d="M 5,12 H 19"
       id="path7574"
       style="stroke-width:3.23804;stroke-dasharray:none" /><path
       d="M 12,5 V 19"
       id="path7576"
       style="stroke-width:3.23804;stroke-dasharray:none" /></g></svg>
