<?xml version="1.0" encoding="utf-8"?>
<!-- Uploaded to: SVG Repo, www.svgrepo.com, Generator: SVG Repo Mixer Tools -->
<svg fill="#000000" width="800px" height="800px" viewBox="-5.5 0 32 32" version="1.1" xmlns="http://www.w3.org/2000/svg">
<title>android</title>
<path d="M14.563 4.344l-1.219 1.719c1.906 0.906 3.281 2.594 3.438 4.563h-13c0.156-1.969 1.5-3.656 3.406-4.563l-1.219-1.719c-0.063-0.125-0.031-0.25 0.063-0.313s0.219-0.031 0.313 0.063l1.25 1.813c0.813-0.313 1.719-0.5 2.688-0.5s1.844 0.188 2.688 0.5l1.25-1.813c0.063-0.094 0.188-0.125 0.281-0.063s0.125 0.188 0.063 0.313zM7.531 8.813c0.406 0 0.719-0.313 0.719-0.719 0-0.375-0.313-0.719-0.719-0.719-0.375 0-0.719 0.344-0.719 0.719 0 0.406 0.344 0.719 0.719 0.719zM13.094 8.813c0.406 0 0.719-0.313 0.719-0.719 0-0.375-0.313-0.719-0.719-0.719-0.375 0-0.719 0.344-0.719 0.719 0 0.406 0.344 0.719 0.719 0.719zM0 18.781v-5.781c0-0.813 0.625-1.5 1.469-1.5 0.813 0 1.438 0.688 1.438 1.5v5.781c0 0.844-0.625 1.5-1.438 1.5-0.844 0-1.469-0.656-1.469-1.5zM17.594 18.781v-5.781c0-0.813 0.656-1.5 1.469-1.5s1.469 0.688 1.469 1.5v5.781c0 0.844-0.656 1.5-1.469 1.5s-1.469-0.656-1.469-1.5zM3.813 22.125v-10.594h13v10.594c0 0.625-0.531 1.156-1.156 1.156h-1.281v3.281c0 0.813-0.656 1.469-1.469 1.469s-1.469-0.656-1.469-1.469v-3.281h-2.281v3.281c0 0.813-0.625 1.469-1.438 1.469-0.844 0-1.469-0.656-1.469-1.469v-3.281h-1.313c-0.594 0-1.125-0.531-1.125-1.156z"></path>
</svg>