<?xml version="1.0" encoding="UTF-8" standalone="no"?>
<!-- Created with Inkscape (http://www.inkscape.org/) -->

<svg
   id="svg29947"
   version="1.1"
   inkscape:version="1.4.3 (0d15f75, 2025-12-25)"
   xml:space="preserve"
   width="256"
   height="256"
   viewBox="0 0 256 255.99999"
   sodipodi:docname="boat2.svg"
   xmlns:inkscape="http://www.inkscape.org/namespaces/inkscape"
   xmlns:sodipodi="http://sodipodi.sourceforge.net/DTD/sodipodi-0.dtd"
   xmlns="http://www.w3.org/2000/svg"
   xmlns:svg="http://www.w3.org/2000/svg"
   xmlns:rdf="http://www.w3.org/1999/02/22-rdf-syntax-ns#"
   xmlns:cc="http://creativecommons.org/ns#"
   xmlns:dc="http://purl.org/dc/elements/1.1/"><metadata
     id="metadata29953"><rdf:RDF><cc:Work
         rdf:about=""><dc:format>image/svg+xml</dc:format><dc:type
           rdf:resource="http://purl.org/dc/dcmitype/StillImage" /></cc:Work></rdf:RDF></metadata><defs
     id="defs29951" /><sodipodi:namedview
     pagecolor="#ffffff"
     bordercolor="#666666"
     borderopacity="1"
     objecttolerance="10"
     gridtolerance="10"
     guidetolerance="10"
     inkscape:pageopacity="0"
     inkscape:pageshadow="2"
     inkscape:window-width="1368"
     inkscape:window-height="841"
     id="namedview29949"
     showgrid="false"
     inkscape:zoom="1.66"
     inkscape:cx="135.24096"
     inkscape:cy="152.10843"
     inkscape:window-x="-8"
     inkscape:window-y="-8"
     inkscape:window-maximized="1"
     inkscape:current-layer="g29955"
     inkscape:showpageshadow="2"
     inkscape:pagecheckerboard="0"
     inkscape:deskcolor="#d1d1d1" /><g
     id="g29955"
     inkscape:groupmode="layer"
     inkscape:label="Sail-Boat-256x"
     transform="matrix(1.25,0,0,-1.25,0,255.99995)"><path
       d="m 194.71372,-3.3896484e-5 -194.71372,0 L 0,204.79997 l 194.71372,0 0,-204.800003896484 z"
       style="fill:none;fill-opacity:1;fill-rule:nonzero;stroke:none"
       id="path29957"
       inkscape:connector-curvature="0" /><g
       id="g29959"
       transform="matrix(0.76042522,0,0,0.76042522,115.61657,197.51852)"
       style="fill:none;fill-opacity:1;stroke:#000000;stroke-width:8.41634369;stroke-dasharray:none;stroke-linecap:round;stroke-linejoin:round"><path
         d="m 0,0 0,-171.071 -137.268,0 L 0,0 Z"
         style="fill:none;fill-opacity:1;fill-rule:nonzero;stroke:#000000;stroke-width:8.41634369;stroke-dasharray:none;stroke-linecap:round;stroke-linejoin:round"
         id="path29961"
         inkscape:connector-curvature="0" /></g><path
       d="M 130.61758,165.97053 V 67.431588 h 64.72588 c 0,0 0.14877,31.113559 -11.39497,50.769792 -17.07607,29.0741 -44.31859,42.70548 -53.33091,47.76915"
       style="fill:none;fill-opacity:1;fill-rule:nonzero;stroke:#000000;stroke-width:6.4;stroke-dasharray:none;stroke-linejoin:round;stroke-linecap:round"
       id="path29973"
       inkscape:connector-curvature="0" /><g
       id="g29975"
       transform="matrix(0.79981567,0,0,0.76042522,39.263995,57.493804)"
       style="fill:none;fill-opacity:1;stroke:#000000;stroke-width:8.20648;stroke-dasharray:none;stroke-linecap:round;stroke-linejoin:round"><path
         d="m 0,0 h 183.876 c 0,0 -19.207,-36.623 -43.536,-38.415 -24.329,-1.792 -18.695,6.914 -31.5,6.146 -20.136,-1.207 -22.351,-6.337 -30.291,-6.39 -7.94,-0.053 -20.416,6.391 -28.611,5.879 -8.194,-0.513 -22.279,-6.041 -30.475,-5.838 C 11.268,-38.415 0,-33.549 0,-33.549 Z"
         style="fill:none;fill-opacity:1;fill-rule:nonzero;stroke:#000000;stroke-width:8.20648;stroke-dasharray:none;stroke-linecap:round;stroke-linejoin:round"
         id="path29977"
         inkscape:connector-curvature="0" /></g><g
       id="g29979"
       transform="matrix(0.79981567,0,0,0.76042522,3.9e-6,18.161362)"
       style="fill:#1a1a1a;fill-opacity:1;stroke:#000000"><path
         d="m 0,0 c 0,0 9.922,-5.54 35.196,4.084 10.756,4.096 24.651,-6.902 36.176,-5.895 17.754,1.553 19.463,7.446 29.707,6.677 10.243,-0.768 18.294,-7.326 26.561,-6.864 8.267,0.462 22.866,7.889 29.78,7.12 6.914,-0.768 20.204,-6.249 27.401,-7.143 6.43,-0.799 24.585,7.655 29.707,7.399 5.122,-0.256 30.988,-9.219 34.829,-8.707 3.842,0.512 6.702,-0.022 6.702,-0.022 V -23.883 H 0 Z"
         style="fill:#1a1a1a;fill-opacity:1;fill-rule:nonzero;stroke:#000000"
         id="path29981"
         inkscape:connector-curvature="0" /></g></g></svg>
