<?xml version="1.0" encoding="UTF-8" standalone="no"?>
<svg
   width="50"
   height="50"
   viewBox="0 0 23.076924 23.076924"
   fill="none"
   stroke="currentColor"
   stroke-width="1"
   stroke-linecap="round"
   stroke-linejoin="round"
   class="lucide lucide-anchor-icon lucide-anchor"
   version="1.1"
   id="svg3"
   sodipodi:docname="colorreset.svg"
   inkscape:version="1.4.3 (0d15f75, 2025-12-25)"
   xml:space="preserve"
   xmlns:inkscape="http://www.inkscape.org/namespaces/inkscape"
   xmlns:sodipodi="http://sodipodi.sourceforge.net/DTD/sodipodi-0.dtd"
   xmlns="http://www.w3.org/2000/svg"
   xmlns:svg="http://www.w3.org/2000/svg"><defs
     id="defs3" /><sodipodi:namedview
     id="namedview3"
     pagecolor="#ffffff"
     bordercolor="#000000"
     borderopacity="0.25"
     inkscape:showpageshadow="2"
     inkscape:pageopacity="0.0"
     inkscape:pagecheckerboard="0"
     inkscape:deskcolor="#d1d1d1"
     showguides="true"
     inkscape:zoom="9.78"
     inkscape:cx="19.683027"
     inkscape:cy="29.192229"
     inkscape:window-width="1920"
     inkscape:window-height="1129"
     inkscape:window-x="2728"
     inkscape:window-y="311"
     inkscape:window-maximized="1"
     inkscape:current-layer="svg3"
     showgrid="false"><sodipodi:guide
       position="24.58707,21.519586"
       orientation="0,-1"
       id="guide3"
       inkscape:locked="false" /><sodipodi:guide
       position="8.2440681,1.1921774"
       orientation="0,-1"
       id="guide4"
       inkscape:locked="false" /><sodipodi:guide
       position="1.1118645,16.514212"
       orientation="1,0"
       id="guide5"
       inkscape:locked="false" /><sodipodi:guide
       position="11.525424,11.822686"
       orientation="1,0"
       id="guide7"
       inkscape:locked="false" /><sodipodi:guide
       position="8.8721098,11.37329"
       orientation="0,-1"
       id="guide8"
       inkscape:locked="false" /><sodipodi:guide
       position="22.038698,9.627183"
       orientation="1,0"
       id="guide2"
       inkscape:locked="false" /></sodipodi:namedview><g
     style="fill:none;stroke:currentColor;stroke-width:1.91783673;stroke-linecap:round;stroke-linejoin:round;stroke-dasharray:none"
     id="g2"
     transform="matrix(0.86636078,0,0,0.86636078,1.0224396,1.3088291)"><path
       d="M 12,9 3.586,17.414 A 2,2 0 0 0 3,18.828 v 1.344 A 2,2 0 0 1 2.414,21.586 2,2 0 0 1 3.828,21 H 5.172 A 2,2 0 0 0 6.586,20.414 L 15,12"
       id="path1"
       style="stroke-width:1.91783673;stroke-dasharray:none" /><path
       d="m 18,9 0.4,0.4 a 2.1213203,2.1213203 0 1 1 -3,3 L 11.6,8.6 a 2.1213203,2.1213203 0 1 1 3,-3 L 15,6 18.4,2.6 a 2.1213203,2.1213203 0 1 1 3,3 z"
       id="path2"
       style="stroke-width:1.91783673;stroke-dasharray:none" /><path
       d="M 2,22 2.414,21.586"
       id="path3"
       style="stroke-width:1.91783673;stroke-dasharray:none" /></g><path
     d="M 2.8699686,2.9412687 20.245535,20.316835"
     id="path1-6"
     style="fill:none;stroke:#000000;stroke-width:1.66153853;stroke-linecap:round;stroke-linejoin:round;stroke-dasharray:none" /></svg>
