<?xml version="1.0" encoding="UTF-8" standalone="no"?>
<svg
   width="50"
   height="50"
   viewBox="0 0 23.076924 23.076924"
   fill="none"
   stroke="currentColor"
   stroke-width="1"
   stroke-linecap="round"
   stroke-linejoin="round"
   class="lucide lucide-anchor-icon lucide-anchor"
   version="1.1"
   id="svg3"
   sodipodi:docname="debug.svg"
   inkscape:version="1.4.3 (0d15f75, 2025-12-25)"
   xml:space="preserve"
   xmlns:inkscape="http://www.inkscape.org/namespaces/inkscape"
   xmlns:sodipodi="http://sodipodi.sourceforge.net/DTD/sodipodi-0.dtd"
   xmlns="http://www.w3.org/2000/svg"
   xmlns:svg="http://www.w3.org/2000/svg"><defs
     id="defs3" /><sodipodi:namedview
     id="namedview3"
     pagecolor="#ffffff"
     bordercolor="#000000"
     borderopacity="0.25"
     inkscape:showpageshadow="2"
     inkscape:pageopacity="0.0"
     inkscape:pagecheckerboard="0"
     inkscape:deskcolor="#d1d1d1"
     showguides="true"
     inkscape:zoom="17.019231"
     inkscape:cx="17.362712"
     inkscape:cy="26.058757"
     inkscape:window-width="1920"
     inkscape:window-height="1129"
     inkscape:window-x="2728"
     inkscape:window-y="311"
     inkscape:window-maximized="1"
     inkscape:current-layer="svg3"
     showgrid="false"><sodipodi:guide
       position="6.9423732,21.910822"
       orientation="0,-1"
       id="guide3"
       inkscape:locked="false" /><sodipodi:guide
       position="8.2440681,1.1921774"
       orientation="0,-1"
       id="guide4"
       inkscape:locked="false" /><sodipodi:guide
       position="1.1118645,16.514212"
       orientation="1,0"
       id="guide5"
       inkscape:locked="false" /><sodipodi:guide
       position="21.884747,15.456585"
       orientation="1,0"
       id="guide6"
       inkscape:locked="false" /><sodipodi:guide
       position="11.525424,11.822686"
       orientation="1,0"
       id="guide7"
       inkscape:locked="false" /><sodipodi:guide
       position="-2.0067797,11.524381"
       orientation="0,-1"
       id="guide8"
       inkscape:locked="false" /></sodipodi:namedview><g
     style="fill:none;stroke:currentColor;stroke-width:1.66153853;stroke-linecap:round;stroke-linejoin:round;stroke-dasharray:none"
     id="g3415"
     transform="translate(-0.33352542,0.06126838)"><path
       d="M 12,20 V 11"
       id="path3376"
       style="stroke-width:1.66153853;stroke-dasharray:none" /><path
       d="m 14,7 a 4,4 0 0 1 4,4 v 3 A 6,6 0 0 1 6,14 v -3 a 4,4 0 0 1 4,-4 z"
       id="path3378"
       style="stroke-width:1.66153853;stroke-dasharray:none" /><path
       d="M 14.12,3.88 16,2"
       id="path3380"
       style="stroke-width:1.66153853;stroke-dasharray:none" /><path
       d="M 21,21 A 4,4 0 0 0 17.19,17"
       id="path3382"
       style="stroke-width:1.66153853;stroke-dasharray:none" /><path
       d="M 21,5 A 4,4 0 0 1 17.45,8.97"
       id="path3384"
       style="stroke-width:1.66153853;stroke-dasharray:none" /><path
       d="M 22,13 H 18"
       id="path3386"
       style="stroke-width:1.66153853;stroke-dasharray:none" /><path
       d="M 3,21 A 4,4 0 0 1 6.81,17"
       id="path3388"
       style="stroke-width:1.66153853;stroke-dasharray:none" /><path
       d="M 3,5 A 4,4 0 0 0 6.55,8.97"
       id="path3390"
       style="stroke-width:1.66153853;stroke-dasharray:none" /><path
       d="M 6,13 H 2"
       id="path3392"
       style="stroke-width:1.66153853;stroke-dasharray:none" /><path
       d="M 8,2 9.88,3.88"
       id="path3394"
       style="stroke-width:1.66153853;stroke-dasharray:none" /><path
       d="M 9,7.13 V 6 a 3,3 0 1 1 6,0 v 1.13"
       id="path3396"
       style="stroke-width:1.66153853;stroke-dasharray:none" /></g></svg>
