<?xml version="1.0" encoding="UTF-8" standalone="no"?>
<svg
   width="50"
   height="50"
   viewBox="0 0 23.076924 23.076924"
   fill="none"
   stroke="currentColor"
   stroke-width="1"
   stroke-linecap="round"
   stroke-linejoin="round"
   class="lucide lucide-anchor-icon lucide-anchor"
   version="1.1"
   id="svg3"
   sodipodi:docname="hideoverlays.svg"
   inkscape:version="1.4.3 (0d15f75, 2025-12-25)"
   xml:space="preserve"
   xmlns:inkscape="http://www.inkscape.org/namespaces/inkscape"
   xmlns:sodipodi="http://sodipodi.sourceforge.net/DTD/sodipodi-0.dtd"
   xmlns="http://www.w3.org/2000/svg"
   xmlns:svg="http://www.w3.org/2000/svg"><defs
     id="defs3" /><sodipodi:namedview
     id="namedview3"
     pagecolor="#ffffff"
     bordercolor="#000000"
     borderopacity="0.25"
     inkscape:showpageshadow="2"
     inkscape:pageopacity="0.0"
     inkscape:pagecheckerboard="0"
     inkscape:deskcolor="#d1d1d1"
     showguides="true"
     inkscape:zoom="9.12"
     inkscape:cx="17.050439"
     inkscape:cy="16.940789"
     inkscape:window-width="1920"
     inkscape:window-height="1129"
     inkscape:window-x="2728"
     inkscape:window-y="311"
     inkscape:window-maximized="1"
     inkscape:current-layer="svg3"
     showgrid="false"><sodipodi:guide
       position="6.9423732,21.910822"
       orientation="0,-1"
       id="guide3"
       inkscape:locked="false" /><sodipodi:guide
       position="8.2440681,1.1921774"
       orientation="0,-1"
       id="guide4"
       inkscape:locked="false" /><sodipodi:guide
       position="1.1118645,16.514212"
       orientation="1,0"
       id="guide5"
       inkscape:locked="false" /><sodipodi:guide
       position="21.884747,15.456585"
       orientation="1,0"
       id="guide6"
       inkscape:locked="false" /><sodipodi:guide
       position="11.525424,11.822686"
       orientation="1,0"
       id="guide7"
       inkscape:locked="false" /><sodipodi:guide
       position="-2.0067797,11.524381"
       orientation="0,-1"
       id="guide8"
       inkscape:locked="false" /></sodipodi:namedview><g
     id="g1"
     transform="translate(0.05124566,0.12897155)"
     style="stroke-width:1.66153853;stroke-dasharray:none"><g
       style="fill:none;stroke:currentColor;stroke-width:1.9123395;stroke-linecap:round;stroke-linejoin:round;stroke-dasharray:none"
       id="g864"
       transform="matrix(0.86885123,0,0,0.86885123,1.1050605,1.1132326)"><path
         d="m 12.83,2.18 a 2,2 0 0 0 -1.66,0 L 2.6,6.08 a 1,1 0 0 0 0,1.83 l 8.58,3.91 a 2,2 0 0 0 1.66,0 l 8.58,-3.9 a 1,1 0 0 0 0,-1.83 z"
         id="path849"
         style="stroke-width:1.9123395;stroke-dasharray:none" /><path
         d="m 2,12 a 1,1 0 0 0 0.58,0.91 l 8.6,3.91 a 2,2 0 0 0 1.65,0 l 8.58,-3.9 A 1,1 0 0 0 22,12"
         id="path851"
         style="stroke-width:1.9123395;stroke-dasharray:none" /><path
         d="m 2,17 a 1,1 0 0 0 0.58,0.91 l 8.6,3.91 a 2,2 0 0 0 1.65,0 l 8.58,-3.9 A 1,1 0 0 0 22,17"
         id="path853"
         style="stroke-width:1.9123395;stroke-dasharray:none" /></g></g><path
     d="M 1.7367762,1.7711886 21.345971,21.380384"
     id="path1"
     style="fill:none;stroke:#000000;stroke-width:1.66153853;stroke-linecap:round;stroke-linejoin:round;stroke-dasharray:none" /></svg>
