<?xml version="1.0" encoding="UTF-8" standalone="no"?>
<svg
   width="52"
   height="52"
   viewBox="0 0 24 24"
   fill="none"
   stroke="currentColor"
   stroke-width="1.25"
   stroke-linecap="round"
   stroke-linejoin="round"
   class="lucide lucide-eye-off-icon lucide-eye-off"
   version="1.1"
   id="svg4"
   sodipodi:docname="hide.svg"
   inkscape:version="1.4.3 (0d15f75, 2025-12-25)"
   xmlns:inkscape="http://www.inkscape.org/namespaces/inkscape"
   xmlns:sodipodi="http://sodipodi.sourceforge.net/DTD/sodipodi-0.dtd"
   xmlns="http://www.w3.org/2000/svg"
   xmlns:svg="http://www.w3.org/2000/svg">
  <defs
     id="defs4" />
  <sodipodi:namedview
     id="namedview4"
     pagecolor="#ffffff"
     bordercolor="#000000"
     borderopacity="0.25"
     inkscape:showpageshadow="2"
     inkscape:pageopacity="0.0"
     inkscape:pagecheckerboard="0"
     inkscape:deskcolor="#d1d1d1"
     inkscape:zoom="10.48"
     inkscape:cx="26.001908"
     inkscape:cy="26.001908"
     inkscape:window-width="1920"
     inkscape:window-height="1129"
     inkscape:window-x="2728"
     inkscape:window-y="311"
     inkscape:window-maximized="1"
     inkscape:current-layer="svg4" />
  <path
     d="M10.733 5.076a10.744 10.744 0 0 1 11.205 6.575 1 1 0 0 1 0 .696 10.747 10.747 0 0 1-1.444 2.49"
     id="path1"
     style="stroke-width:1.66153846;stroke-dasharray:none" />
  <path
     d="M14.084 14.158a3 3 0 0 1-4.242-4.242"
     id="path2"
     style="stroke-width:1.66153846;stroke-dasharray:none" />
  <path
     d="M17.479 17.499a10.75 10.75 0 0 1-15.417-5.151 1 1 0 0 1 0-.696 10.75 10.75 0 0 1 4.446-5.143"
     id="path3"
     style="stroke-width:1.66153846;stroke-dasharray:none" />
  <path
     d="m2 2 20 20"
     id="path4"
     style="stroke-width:1.66153846;stroke-dasharray:none" />
</svg>
