<?xml version="1.0" encoding="UTF-8" standalone="no"?>
<svg
   width="52"
   height="52"
   viewBox="0 0 24 24"
   fill="none"
   stroke="currentColor"
   stroke-width="1.25"
   stroke-linecap="round"
   stroke-linejoin="round"
   class="lucide lucide-file-code-icon lucide-file-code"
   version="1.1"
   id="svg4"
   sodipodi:docname="itdirectory.svg"
   inkscape:version="1.4.3 (0d15f75, 2025-12-25)"
   xml:space="preserve"
   xmlns:inkscape="http://www.inkscape.org/namespaces/inkscape"
   xmlns:sodipodi="http://sodipodi.sourceforge.net/DTD/sodipodi-0.dtd"
   xmlns="http://www.w3.org/2000/svg"
   xmlns:svg="http://www.w3.org/2000/svg"><defs
     id="defs4" /><sodipodi:namedview
     id="namedview4"
     pagecolor="#ffffff"
     bordercolor="#000000"
     borderopacity="0.25"
     inkscape:showpageshadow="2"
     inkscape:pageopacity="0.0"
     inkscape:pagecheckerboard="0"
     inkscape:deskcolor="#d1d1d1"
     inkscape:zoom="11.23"
     inkscape:cx="25.957257"
     inkscape:cy="25.957257"
     inkscape:window-width="1920"
     inkscape:window-height="1129"
     inkscape:window-x="2728"
     inkscape:window-y="311"
     inkscape:window-maximized="1"
     inkscape:current-layer="svg4" /><g
     style="fill:none;stroke:currentColor;stroke-width:1.71;stroke-linecap:round;stroke-linejoin:round;stroke-dasharray:none"
     id="g1"
     transform="matrix(0.97165992,0,0,0.97165992,0.44384786,0.62079443)"><path
       d="M 10,10.5 8,13 10,15.5"
       id="path1-0"
       style="stroke-width:1.71;stroke-dasharray:none" /><path
       d="m 14,10.5 2,2.5 -2,2.5"
       id="path2-9"
       style="stroke-width:1.71;stroke-dasharray:none" /><path
       d="m 20,20 a 2,2 0 0 0 2,-2 V 8 A 2,2 0 0 0 20,6 H 12.1 A 2,2 0 0 1 10.41,5.1 L 9.6,3.9 A 2,2 0 0 0 7.93,3 H 4 A 2,2 0 0 0 2,5 v 13 a 2,2 0 0 0 2,2 z"
       id="path3-4"
       style="stroke-width:1.71;stroke-dasharray:none" /></g></svg>
