<?xml version="1.0" encoding="UTF-8" standalone="no"?>
<svg
   width="52"
   height="52"
   viewBox="0 0 24 24"
   fill="none"
   stroke="currentColor"
   stroke-width="1.25"
   stroke-linecap="round"
   stroke-linejoin="round"
   class="lucide lucide-file-code-icon lucide-file-code"
   version="1.1"
   id="svg4"
   sodipodi:docname="ithtml.svg"
   inkscape:version="1.4.3 (0d15f75, 2025-12-25)"
   xmlns:inkscape="http://www.inkscape.org/namespaces/inkscape"
   xmlns:sodipodi="http://sodipodi.sourceforge.net/DTD/sodipodi-0.dtd"
   xmlns="http://www.w3.org/2000/svg"
   xmlns:svg="http://www.w3.org/2000/svg">
  <defs
     id="defs4" />
  <sodipodi:namedview
     id="namedview4"
     pagecolor="#ffffff"
     bordercolor="#000000"
     borderopacity="0.25"
     inkscape:showpageshadow="2"
     inkscape:pageopacity="0.0"
     inkscape:pagecheckerboard="0"
     inkscape:deskcolor="#d1d1d1"
     inkscape:zoom="17.019231"
     inkscape:cx="26"
     inkscape:cy="35.166102"
     inkscape:window-width="1920"
     inkscape:window-height="1129"
     inkscape:window-x="2728"
     inkscape:window-y="311"
     inkscape:window-maximized="1"
     inkscape:current-layer="svg4" />
  <path
     d="M6 22a2 2 0 0 1-2-2V4a2 2 0 0 1 2-2h8a2.4 2.4 0 0 1 1.704.706l3.588 3.588A2.4 2.4 0 0 1 20 8v12a2 2 0 0 1-2 2z"
     id="path1"
     style="stroke-width:1.66153846;stroke-dasharray:none" />
  <path
     d="M14 2v5a1 1 0 0 0 1 1h5"
     id="path2"
     style="stroke-width:1.66153846;stroke-dasharray:none" />
  <path
     d="M10 12.5 8 15l2 2.5"
     id="path3"
     style="stroke-width:1.66153846;stroke-dasharray:none" />
  <path
     d="m14 12.5 2 2.5-2 2.5"
     id="path4"
     style="stroke-width:1.66153846;stroke-dasharray:none" />
</svg>
