<?xml version="1.0" encoding="UTF-8" standalone="no"?>
<svg
   width="50"
   height="50"
   viewBox="0 0 23.076924 23.076924"
   fill="none"
   stroke="currentColor"
   stroke-width="1"
   stroke-linecap="round"
   stroke-linejoin="round"
   class="lucide lucide-anchor-icon lucide-anchor"
   version="1.1"
   id="svg3"
   sodipodi:docname="ituserspecial.svg"
   inkscape:version="1.4.3 (0d15f75, 2025-12-25)"
   xml:space="preserve"
   xmlns:inkscape="http://www.inkscape.org/namespaces/inkscape"
   xmlns:sodipodi="http://sodipodi.sourceforge.net/DTD/sodipodi-0.dtd"
   xmlns="http://www.w3.org/2000/svg"
   xmlns:svg="http://www.w3.org/2000/svg"><defs
     id="defs3" /><sodipodi:namedview
     id="namedview3"
     pagecolor="#ffffff"
     bordercolor="#000000"
     borderopacity="0.25"
     inkscape:showpageshadow="2"
     inkscape:pageopacity="0.0"
     inkscape:pagecheckerboard="0"
     inkscape:deskcolor="#d1d1d1"
     showguides="true"
     inkscape:zoom="17.019231"
     inkscape:cx="20.124294"
     inkscape:cy="25.177401"
     inkscape:window-width="1920"
     inkscape:window-height="1129"
     inkscape:window-x="2728"
     inkscape:window-y="311"
     inkscape:window-maximized="1"
     inkscape:current-layer="svg3"
     showgrid="false"><sodipodi:guide
       position="6.9423732,21.910822"
       orientation="0,-1"
       id="guide3"
       inkscape:locked="false" /><sodipodi:guide
       position="8.2440681,1.1921774"
       orientation="0,-1"
       id="guide4"
       inkscape:locked="false" /><sodipodi:guide
       position="1.1118645,16.514212"
       orientation="1,0"
       id="guide5"
       inkscape:locked="false" /><sodipodi:guide
       position="21.884747,15.456585"
       orientation="1,0"
       id="guide6"
       inkscape:locked="false" /><sodipodi:guide
       position="11.525424,11.822686"
       orientation="1,0"
       id="guide7"
       inkscape:locked="false" /><sodipodi:guide
       position="-2.0067797,11.524381"
       orientation="0,-1"
       id="guide8"
       inkscape:locked="false" /></sodipodi:namedview><g
     style="fill:none;stroke:currentColor;stroke-width:1.90927311;stroke-linecap:round;stroke-linejoin:round;stroke-dasharray:none"
     id="g815"
     transform="matrix(0.87024665,0,0,0.87024665,1.0955022,1.0959373)"><path
       d="m 9.671,4.136 a 2.34,2.34 0 0 1 4.659,0 2.34,2.34 0 0 0 3.319,1.915 2.34,2.34 0 0 1 2.33,4.033 2.34,2.34 0 0 0 0,3.831 2.34,2.34 0 0 1 -2.33,4.033 2.34,2.34 0 0 0 -3.319,1.915 2.34,2.34 0 0 1 -4.659,0 2.34,2.34 0 0 0 -3.32,-1.915 2.34,2.34 0 0 1 -2.33,-4.033 2.34,2.34 0 0 0 0,-3.831 A 2.34,2.34 0 0 1 6.35,6.051 2.34,2.34 0 0 0 9.669,4.136"
       id="path803"
       style="stroke-width:1.90927311;stroke-dasharray:none" /><circle
       cx="12"
       cy="12"
       r="3"
       id="circle805"
       style="stroke-width:1.90927311;stroke-dasharray:none" /></g></svg>
