<?xml version="1.0" encoding="UTF-8" standalone="no"?>
<svg
   width="52"
   height="52"
   viewBox="0 0 24 24"
   fill="none"
   stroke="currentColor"
   stroke-width="1.25"
   stroke-linecap="round"
   stroke-linejoin="round"
   class="lucide lucide-file-braces-corner-icon lucide-file-braces-corner"
   version="1.1"
   id="svg4"
   sodipodi:docname="jschanged.svg"
   inkscape:version="1.4.3 (0d15f75, 2025-12-25)"
   xmlns:inkscape="http://www.inkscape.org/namespaces/inkscape"
   xmlns:sodipodi="http://sodipodi.sourceforge.net/DTD/sodipodi-0.dtd"
   xmlns="http://www.w3.org/2000/svg"
   xmlns:svg="http://www.w3.org/2000/svg">
  <defs
     id="defs4" />
  <sodipodi:namedview
     id="namedview4"
     pagecolor="#ffffff"
     bordercolor="#000000"
     borderopacity="0.25"
     inkscape:showpageshadow="2"
     inkscape:pageopacity="0.0"
     inkscape:pagecheckerboard="0"
     inkscape:deskcolor="#d1d1d1"
     inkscape:zoom="17.019231"
     inkscape:cx="26"
     inkscape:cy="38.045198"
     inkscape:window-width="1920"
     inkscape:window-height="1129"
     inkscape:window-x="2728"
     inkscape:window-y="311"
     inkscape:window-maximized="1"
     inkscape:current-layer="svg4" />
  <path
     d="M14 22h4a2 2 0 0 0 2-2V8a2.4 2.4 0 0 0-.706-1.706l-3.588-3.588A2.4 2.4 0 0 0 14 2H6a2 2 0 0 0-2 2v6"
     id="path1"
     style="stroke-width:1.66153846;stroke-dasharray:none" />
  <path
     d="M14 2v5a1 1 0 0 0 1 1h5"
     id="path2"
     style="stroke-width:1.66153846;stroke-dasharray:none" />
  <path
     d="M5 14a1 1 0 0 0-1 1v2a1 1 0 0 1-1 1 1 1 0 0 1 1 1v2a1 1 0 0 0 1 1"
     id="path3"
     style="stroke-width:1.66153846;stroke-dasharray:none" />
  <path
     d="M9 22a1 1 0 0 0 1-1v-2a1 1 0 0 1 1-1 1 1 0 0 1-1-1v-2a1 1 0 0 0-1-1"
     id="path4"
     style="stroke-width:1.66153846;stroke-dasharray:none" />
</svg>
