<?xml version="1.0" encoding="UTF-8" standalone="no"?>
<svg
   width="50"
   height="50"
   viewBox="0 0 23.076924 23.076924"
   fill="none"
   stroke="currentColor"
   stroke-width="1"
   stroke-linecap="round"
   stroke-linejoin="round"
   class="lucide lucide-anchor-icon lucide-anchor"
   version="1.1"
   id="svg3"
   sodipodi:docname="mob.svg"
   inkscape:version="1.4.3 (0d15f75, 2025-12-25)"
   xml:space="preserve"
   xmlns:inkscape="http://www.inkscape.org/namespaces/inkscape"
   xmlns:sodipodi="http://sodipodi.sourceforge.net/DTD/sodipodi-0.dtd"
   xmlns="http://www.w3.org/2000/svg"
   xmlns:svg="http://www.w3.org/2000/svg"><defs
     id="defs3" /><sodipodi:namedview
     id="namedview3"
     pagecolor="#ffffff"
     bordercolor="#000000"
     borderopacity="0.25"
     inkscape:showpageshadow="2"
     inkscape:pageopacity="0.0"
     inkscape:pagecheckerboard="0"
     inkscape:deskcolor="#d1d1d1"
     showguides="true"
     inkscape:zoom="9.78"
     inkscape:cx="19.631902"
     inkscape:cy="29.192229"
     inkscape:window-width="1920"
     inkscape:window-height="1129"
     inkscape:window-x="2728"
     inkscape:window-y="311"
     inkscape:window-maximized="1"
     inkscape:current-layer="svg3"
     showgrid="false"><sodipodi:guide
       position="6.9423732,21.910822"
       orientation="0,-1"
       id="guide3"
       inkscape:locked="false" /><sodipodi:guide
       position="8.2440681,1.1921774"
       orientation="0,-1"
       id="guide4"
       inkscape:locked="false" /><sodipodi:guide
       position="1.1118645,16.514212"
       orientation="1,0"
       id="guide5"
       inkscape:locked="false" /><sodipodi:guide
       position="21.884747,15.456585"
       orientation="1,0"
       id="guide6"
       inkscape:locked="false" /><sodipodi:guide
       position="11.525424,11.822686"
       orientation="1,0"
       id="guide7"
       inkscape:locked="false" /><sodipodi:guide
       position="-2.0067797,11.524381"
       orientation="0,-1"
       id="guide8"
       inkscape:locked="false" /></sodipodi:namedview><path
     d="m 12.130151,7.856405 c 0.668334,-1.120704 2.049193,-1.4410319 3.080674,-0.7144934 1.032507,0.7265386 1.327627,2.2231152 0.659292,3.3449344 -0.669365,1.120705 -2.049188,1.439916 -3.081703,0.714492 C 11.755907,10.474799 11.460787,8.9771074 12.130151,7.856405 Z M 3.0757666,18.138593 c 0.9593448,-2.023694 2.461661,-0.589353 2.461661,-0.589353 -0.9091986,0.08729 -0.9533837,1.007606 -0.7897955,1.552122 0.1956528,0.650248 0.866043,0.899641 1.1981554,0.987976 h 0.2920362 c 0.3362234,-0.07297 1.0756662,-0.407325 1.8083298,-1.950745 0.9613986,-2.023694 2.4616635,-0.589353 2.4616635,-0.589353 -0.909204,0.08728 -0.9513343,1.007606 -0.7877411,1.552122 0.194618,0.650248 0.8639841,0.899641 1.2002121,0.987976 h 0.239828 c 0.337255,-0.073 1.077724,-0.407325 1.809359,-1.950745 0.963454,-2.023694 2.461664,-0.589353 2.461664,-0.589353 -0.907143,0.08729 -0.951329,1.007606 -0.785689,1.552122 0.19462,0.650248 0.862963,0.899641 1.197132,0.987976 h 0.289978 c 0.335196,-0.073 1.078752,-0.407325 1.807299,-1.950745 0.965309,-2.023694 2.460636,-0.589353 2.460636,-0.589353 -0.907144,0.08729 -0.950301,1.007606 -0.785683,1.552122 0.194618,0.650248 0.862956,0.899641 1.197126,0.987976 h 1.005997 v -2.919093 h -0.678407 c -0.329234,-0.08729 -0.985446,-0.331036 -1.177193,-0.962771 -0.160506,-0.533802 -0.119392,-1.432328 0.772742,-1.516204 0,0 -1.470052,-1.397539 -2.416451,0.573959 -0.25381,0.531572 -0.507828,0.909456 -0.746636,1.18829 l -2.887901,-3.229606 -3.45697,-2.4299 -1.2273381,-0.8637269 v 0.0011 L 7.5422282,8.2039088 6.3551723,3.7523241 C 6.2065755,3.1935345 5.6708077,2.8821284 5.152908,3.0333704 4.6380924,3.1957718 4.3411243,3.7795388 4.4905333,4.3383307 l 1.2875528,4.8285717 c 0.066179,0.2440368 0.2088112,0.4530542 0.4054803,0.5913571 L 8.9442549,11.698074 5.8656353,16.85657 C 5.6539601,16.706221 5.4591257,16.502556 5.3699329,16.207436 5.2094265,15.673633 5.2515513,14.775107 6.1426703,14.691232 c 0,0 -1.4700495,-1.397538 -2.4133651,0.573957 -0.7225931,1.504162 -1.4501155,1.83319 -1.7781192,1.905018 H 1.2664098 V 20.0893 c 0.3351963,-0.07294 1.0746387,-0.407327 1.8093568,-1.950747 z"
     id="path2748"
     style="stroke-width:0.214112;fill:#000000" /></svg>
