<?xml version="1.0" encoding="UTF-8" standalone="no"?>
<svg
   width="50"
   height="50"
   viewBox="0 0 23.076924 23.076924"
   fill="none"
   stroke="currentColor"
   stroke-width="1"
   stroke-linecap="round"
   stroke-linejoin="round"
   class="lucide lucide-anchor-icon lucide-anchor"
   version="1.1"
   id="svg3"
   sodipodi:docname="num10.svg"
   inkscape:version="1.4.3 (0d15f75, 2025-12-25)"
   xml:space="preserve"
   xmlns:inkscape="http://www.inkscape.org/namespaces/inkscape"
   xmlns:sodipodi="http://sodipodi.sourceforge.net/DTD/sodipodi-0.dtd"
   xmlns="http://www.w3.org/2000/svg"
   xmlns:svg="http://www.w3.org/2000/svg"><defs
     id="defs3"><inkscape:path-effect
       effect="spiro"
       id="path-effect6"
       is_visible="true"
       lpeversion="1" /><inkscape:path-effect
       effect="spiro"
       id="path-effect6-4"
       is_visible="true"
       lpeversion="1" /></defs><sodipodi:namedview
     id="namedview3"
     pagecolor="#ffffff"
     bordercolor="#000000"
     borderopacity="0.25"
     inkscape:showpageshadow="2"
     inkscape:pageopacity="0.0"
     inkscape:pagecheckerboard="0"
     inkscape:deskcolor="#d1d1d1"
     showguides="true"
     inkscape:zoom="6.91"
     inkscape:cx="41.027496"
     inkscape:cy="43.198263"
     inkscape:window-width="1920"
     inkscape:window-height="1129"
     inkscape:window-x="2728"
     inkscape:window-y="311"
     inkscape:window-maximized="1"
     inkscape:current-layer="svg3"
     showgrid="false"><sodipodi:guide
       position="6.9423732,21.910822"
       orientation="0,-1"
       id="guide3"
       inkscape:locked="false" /><sodipodi:guide
       position="8.2440681,1.1921774"
       orientation="0,-1"
       id="guide4"
       inkscape:locked="false" /><sodipodi:guide
       position="1.1118645,16.514212"
       orientation="1,0"
       id="guide5"
       inkscape:locked="false" /><sodipodi:guide
       position="21.884747,15.456585"
       orientation="1,0"
       id="guide6"
       inkscape:locked="false" /><sodipodi:guide
       position="11.525424,11.822686"
       orientation="1,0"
       id="guide7"
       inkscape:locked="false" /><sodipodi:guide
       position="-2.0067797,11.524381"
       orientation="0,-1"
       id="guide8"
       inkscape:locked="false" /></sodipodi:namedview><g
     style="fill:none;stroke:currentColor;stroke-width:1.71010906;stroke-linecap:round;stroke-linejoin:round;stroke-dasharray:none"
     id="g927"
     transform="matrix(0.97159799,0,0,0.97159799,-0.25429955,-1.9725128)"><path
       d="m 12,14 4,-4"
       id="path915"
       style="stroke-width:1.71010906;stroke-dasharray:none" /><path
       d="m 3.34,19 a 10,10 0 1 1 17.32,0"
       id="path917"
       style="stroke-width:1.71010906;stroke-dasharray:none" /></g><path
     d="m 9.9363247,21.774464 h -1.182092 v -4.454931 q -0.647837,0.60577 -1.5270442,0.896034 V 17.14285 q 0.4627407,-0.151442 1.0054092,-0.572115 0.5426686,-0.424881 0.7445918,-0.988583 h 0.9591352 z m 3.7650263,-6.192312 q 0.896034,0 1.400842,0.639424 0.601563,0.757212 0.601563,2.511419 0,1.750002 -0.60577,2.515627 -0.500601,0.63101 -1.396635,0.63101 -0.900241,0 -1.451323,-0.689904 -0.551082,-0.694111 -0.551082,-2.469353 0,-1.741587 0.605769,-2.507213 0.500602,-0.63101 1.396636,-0.63101 z m 0,0.980169 q -0.214543,0 -0.382813,0.138822 -0.168269,0.134616 -0.260817,0.487981 -0.121996,0.458534 -0.121996,1.543871 0,1.085338 0.109376,1.493391 0.109375,0.403846 0.273437,0.538462 0.16827,0.134615 0.382813,0.134615 0.214543,0 0.382813,-0.134615 0.168269,-0.138823 0.260817,-0.492188 0.121995,-0.454327 0.121995,-1.539665 0,-1.085337 -0.109375,-1.489183 -0.109375,-0.408053 -0.277644,-0.542669 -0.164063,-0.138822 -0.378606,-0.138822 z"
     id="text1"
     style="font-weight:bold;font-size:8.61539px;font-family:Arial;-inkscape-font-specification:'Arial, Bold';fill:#1a1a1a;stroke:#000000;stroke-width:0.17444"
     aria-label="10" /></svg>
