<?xml version="1.0" encoding="UTF-8" standalone="no"?>
<svg
   width="50"
   height="50"
   viewBox="0 0 23.076924 23.076924"
   fill="none"
   stroke="currentColor"
   stroke-width="1"
   stroke-linecap="round"
   stroke-linejoin="round"
   class="lucide lucide-anchor-icon lucide-anchor"
   version="1.1"
   id="svg3"
   sodipodi:docname="num2.svg"
   inkscape:version="1.4.3 (0d15f75, 2025-12-25)"
   xml:space="preserve"
   xmlns:inkscape="http://www.inkscape.org/namespaces/inkscape"
   xmlns:sodipodi="http://sodipodi.sourceforge.net/DTD/sodipodi-0.dtd"
   xmlns="http://www.w3.org/2000/svg"
   xmlns:svg="http://www.w3.org/2000/svg"><defs
     id="defs3"><inkscape:path-effect
       effect="spiro"
       id="path-effect6"
       is_visible="true"
       lpeversion="1" /><inkscape:path-effect
       effect="spiro"
       id="path-effect6-4"
       is_visible="true"
       lpeversion="1" /></defs><sodipodi:namedview
     id="namedview3"
     pagecolor="#ffffff"
     bordercolor="#000000"
     borderopacity="0.25"
     inkscape:showpageshadow="2"
     inkscape:pageopacity="0.0"
     inkscape:pagecheckerboard="0"
     inkscape:deskcolor="#d1d1d1"
     showguides="true"
     inkscape:zoom="6.91"
     inkscape:cx="41.027496"
     inkscape:cy="43.198263"
     inkscape:window-width="1920"
     inkscape:window-height="1129"
     inkscape:window-x="2728"
     inkscape:window-y="311"
     inkscape:window-maximized="1"
     inkscape:current-layer="svg3"
     showgrid="false"><sodipodi:guide
       position="6.9423732,21.910822"
       orientation="0,-1"
       id="guide3"
       inkscape:locked="false" /><sodipodi:guide
       position="8.2440681,1.1921774"
       orientation="0,-1"
       id="guide4"
       inkscape:locked="false" /><sodipodi:guide
       position="1.1118645,16.514212"
       orientation="1,0"
       id="guide5"
       inkscape:locked="false" /><sodipodi:guide
       position="21.884747,15.456585"
       orientation="1,0"
       id="guide6"
       inkscape:locked="false" /><sodipodi:guide
       position="11.525424,11.822686"
       orientation="1,0"
       id="guide7"
       inkscape:locked="false" /><sodipodi:guide
       position="-2.0067797,11.524381"
       orientation="0,-1"
       id="guide8"
       inkscape:locked="false" /></sodipodi:namedview><g
     style="fill:none;stroke:currentColor;stroke-width:1.71010906;stroke-linecap:round;stroke-linejoin:round;stroke-dasharray:none"
     id="g927"
     transform="matrix(0.97159799,0,0,0.97159799,-0.25429955,-1.9725128)"><path
       d="m 12,14 4,-4"
       id="path915"
       style="stroke-width:1.71010906;stroke-dasharray:none" /><path
       d="m 3.34,19 a 10,10 0 1 1 17.32,0"
       id="path917"
       style="stroke-width:1.71010906;stroke-dasharray:none" /></g><path
     d="M 13.642379,20.609713 V 21.70767 H 9.4987469 q 0.067308,-0.622596 0.4038464,-1.177885 0.3365387,-0.559496 1.3293277,-1.48077 0.799279,-0.744592 0.980169,-1.009616 0.24399,-0.365986 0.24399,-0.723558 0,-0.395433 -0.214543,-0.60577 -0.210337,-0.214543 -0.584736,-0.214543 -0.370192,0 -0.588943,0.222957 -0.21875,0.222956 -0.252404,0.740385 L 9.6375691,17.341081 q 0.1051684,-0.975962 0.6604569,-1.400842 0.555289,-0.42488 1.388222,-0.42488 0.912861,0 1.434496,0.492188 0.521635,0.492187 0.521635,1.224159 0,0.416467 -0.151442,0.795073 -0.147236,0.374399 -0.471154,0.786659 -0.214544,0.273437 -0.774039,0.786659 -0.559496,0.513221 -0.710938,0.681491 -0.147236,0.168269 -0.239784,0.328125 z"
     id="text1"
     style="font-weight:bold;font-size:8.61539px;font-family:Arial;-inkscape-font-specification:'Arial, Bold';fill:#1a1a1a;stroke:#000000;stroke-width:0.17444"
     aria-label="2" /></svg>
