<?xml version="1.0" encoding="UTF-8" standalone="no"?>
<svg
   width="50"
   height="50"
   viewBox="0 0 23.076924 23.076924"
   fill="none"
   stroke="currentColor"
   stroke-width="1"
   stroke-linecap="round"
   stroke-linejoin="round"
   class="lucide lucide-anchor-icon lucide-anchor"
   version="1.1"
   id="svg3"
   sodipodi:docname="num6.svg"
   inkscape:version="1.4.3 (0d15f75, 2025-12-25)"
   xml:space="preserve"
   xmlns:inkscape="http://www.inkscape.org/namespaces/inkscape"
   xmlns:sodipodi="http://sodipodi.sourceforge.net/DTD/sodipodi-0.dtd"
   xmlns="http://www.w3.org/2000/svg"
   xmlns:svg="http://www.w3.org/2000/svg"><defs
     id="defs3"><inkscape:path-effect
       effect="spiro"
       id="path-effect6"
       is_visible="true"
       lpeversion="1" /><inkscape:path-effect
       effect="spiro"
       id="path-effect6-4"
       is_visible="true"
       lpeversion="1" /></defs><sodipodi:namedview
     id="namedview3"
     pagecolor="#ffffff"
     bordercolor="#000000"
     borderopacity="0.25"
     inkscape:showpageshadow="2"
     inkscape:pageopacity="0.0"
     inkscape:pagecheckerboard="0"
     inkscape:deskcolor="#d1d1d1"
     showguides="true"
     inkscape:zoom="6.91"
     inkscape:cx="41.027496"
     inkscape:cy="43.198263"
     inkscape:window-width="1920"
     inkscape:window-height="1129"
     inkscape:window-x="2728"
     inkscape:window-y="311"
     inkscape:window-maximized="1"
     inkscape:current-layer="svg3"
     showgrid="false"><sodipodi:guide
       position="6.9423732,21.910822"
       orientation="0,-1"
       id="guide3"
       inkscape:locked="false" /><sodipodi:guide
       position="8.2440681,1.1921774"
       orientation="0,-1"
       id="guide4"
       inkscape:locked="false" /><sodipodi:guide
       position="1.1118645,16.514212"
       orientation="1,0"
       id="guide5"
       inkscape:locked="false" /><sodipodi:guide
       position="21.884747,15.456585"
       orientation="1,0"
       id="guide6"
       inkscape:locked="false" /><sodipodi:guide
       position="11.525424,11.822686"
       orientation="1,0"
       id="guide7"
       inkscape:locked="false" /><sodipodi:guide
       position="-2.0067797,11.524381"
       orientation="0,-1"
       id="guide8"
       inkscape:locked="false" /></sodipodi:namedview><g
     style="fill:none;stroke:currentColor;stroke-width:1.71010906;stroke-linecap:round;stroke-linejoin:round;stroke-dasharray:none"
     id="g927"
     transform="matrix(0.97159799,0,0,0.97159799,-0.25429955,-1.9725128)"><path
       d="m 12,14 4,-4"
       id="path915"
       style="stroke-width:1.71010906;stroke-dasharray:none" /><path
       d="m 3.34,19 a 10,10 0 1 1 17.32,0"
       id="path917"
       style="stroke-width:1.71010906;stroke-dasharray:none" /></g><path
     d="m 13.387829,17.050816 -1.144232,0.126202 q -0.04207,-0.353365 -0.21875,-0.521634 -0.176683,-0.16827 -0.458534,-0.16827 -0.374399,0 -0.635217,0.336539 -0.25661,0.336539 -0.323918,1.400842 0.441707,-0.521635 1.097957,-0.521635 0.740385,0 1.266227,0.563702 0.530048,0.563703 0.530048,1.45553 0,0.946515 -0.555288,1.518631 -0.555289,0.572116 -1.426083,0.572116 -0.933895,0 -1.5354577,-0.723559 -0.6015629,-0.727764 -0.6015629,-2.381011 0,-1.695313 0.6268036,-2.444112 0.626803,-0.748798 1.628005,-0.748798 0.702525,0 1.161059,0.395433 0.462741,0.391226 0.588943,1.140024 z m -2.67969,2.578728 q 0,0.576322 0.265025,0.891827 0.265024,0.311299 0.605769,0.311299 0.328125,0 0.546876,-0.256611 0.21875,-0.256611 0.21875,-0.841347 0,-0.601563 -0.235577,-0.879207 -0.235577,-0.281851 -0.588943,-0.281851 -0.340745,0 -0.576323,0.269231 -0.235577,0.265024 -0.235577,0.786659 z"
     id="text1"
     style="font-weight:bold;font-size:8.61539px;font-family:Arial;-inkscape-font-specification:'Arial, Bold';fill:#1a1a1a;stroke:#000000;stroke-width:0.17444"
     aria-label="6" /></svg>
