<?xml version="1.0" encoding="UTF-8" standalone="no"?>
<svg
   width="50"
   height="50"
   viewBox="0 0 23.076924 23.076924"
   fill="none"
   stroke="currentColor"
   stroke-width="1"
   stroke-linecap="round"
   stroke-linejoin="round"
   class="lucide lucide-anchor-icon lucide-anchor"
   version="1.1"
   id="svg3"
   sodipodi:docname="num8.svg"
   inkscape:version="1.4.3 (0d15f75, 2025-12-25)"
   xml:space="preserve"
   xmlns:inkscape="http://www.inkscape.org/namespaces/inkscape"
   xmlns:sodipodi="http://sodipodi.sourceforge.net/DTD/sodipodi-0.dtd"
   xmlns="http://www.w3.org/2000/svg"
   xmlns:svg="http://www.w3.org/2000/svg"><defs
     id="defs3"><inkscape:path-effect
       effect="spiro"
       id="path-effect6"
       is_visible="true"
       lpeversion="1" /><inkscape:path-effect
       effect="spiro"
       id="path-effect6-4"
       is_visible="true"
       lpeversion="1" /></defs><sodipodi:namedview
     id="namedview3"
     pagecolor="#ffffff"
     bordercolor="#000000"
     borderopacity="0.25"
     inkscape:showpageshadow="2"
     inkscape:pageopacity="0.0"
     inkscape:pagecheckerboard="0"
     inkscape:deskcolor="#d1d1d1"
     showguides="true"
     inkscape:zoom="6.91"
     inkscape:cx="41.027496"
     inkscape:cy="43.198263"
     inkscape:window-width="1920"
     inkscape:window-height="1129"
     inkscape:window-x="2728"
     inkscape:window-y="311"
     inkscape:window-maximized="1"
     inkscape:current-layer="svg3"
     showgrid="false"><sodipodi:guide
       position="6.9423732,21.910822"
       orientation="0,-1"
       id="guide3"
       inkscape:locked="false" /><sodipodi:guide
       position="8.2440681,1.1921774"
       orientation="0,-1"
       id="guide4"
       inkscape:locked="false" /><sodipodi:guide
       position="1.1118645,16.514212"
       orientation="1,0"
       id="guide5"
       inkscape:locked="false" /><sodipodi:guide
       position="21.884747,15.456585"
       orientation="1,0"
       id="guide6"
       inkscape:locked="false" /><sodipodi:guide
       position="11.525424,11.822686"
       orientation="1,0"
       id="guide7"
       inkscape:locked="false" /><sodipodi:guide
       position="-2.0067797,11.524381"
       orientation="0,-1"
       id="guide8"
       inkscape:locked="false" /></sodipodi:namedview><g
     style="fill:none;stroke:currentColor;stroke-width:1.71010906;stroke-linecap:round;stroke-linejoin:round;stroke-dasharray:none"
     id="g927"
     transform="matrix(0.97159799,0,0,0.97159799,-0.25429955,-1.9725128)"><path
       d="m 12,14 4,-4"
       id="path915"
       style="stroke-width:1.71010906;stroke-dasharray:none" /><path
       d="m 3.34,19 a 10,10 0 1 1 17.32,0"
       id="path917"
       style="stroke-width:1.71010906;stroke-dasharray:none" /></g><path
     d="m 10.396841,18.380144 q -0.4585338,-0.19351 -0.6688704,-0.530048 -0.20613,-0.340746 -0.20613,-0.744592 0,-0.689904 0.4795674,-1.140025 0.483775,-0.45012 1.371395,-0.45012 0.879208,0 1.362982,0.45012 0.487981,0.450121 0.487981,1.140025 0,0.429087 -0.222957,0.765625 -0.222957,0.332332 -0.626803,0.509015 0.513221,0.20613 0.778245,0.601563 0.269231,0.395433 0.269231,0.912861 0,0.853967 -0.546875,1.388222 -0.542669,0.534255 -1.447116,0.534255 -0.841347,0 -1.400842,-0.441707 -0.6604575,-0.521635 -0.6604575,-1.430289 0,-0.500601 0.2481973,-0.917068 0.2481972,-0.420673 0.7824522,-0.647837 z m 0.243991,-1.190505 q 0,0.353365 0.197716,0.551082 0.201923,0.197716 0.534255,0.197716 0.336539,0 0.538462,-0.197716 0.201923,-0.201924 0.201923,-0.555289 0,-0.332332 -0.201923,-0.530048 -0.197716,-0.201924 -0.525842,-0.201924 -0.340745,0 -0.542668,0.201924 -0.201923,0.201923 -0.201923,0.534255 z m -0.109375,2.641828 q 0,0.487981 0.248197,0.761419 0.252404,0.273438 0.626803,0.273438 0.365986,0 0.60577,-0.260818 0.239784,-0.265024 0.239784,-0.761419 0,-0.433293 -0.243991,-0.694111 -0.243991,-0.265024 -0.61839,-0.265024 -0.433293,0 -0.647837,0.298678 -0.210336,0.298678 -0.210336,0.647837 z"
     id="text1"
     style="font-weight:bold;font-size:8.61539px;font-family:Arial;-inkscape-font-specification:'Arial, Bold';fill:#1a1a1a;stroke:#000000;stroke-width:0.17444"
     aria-label="8" /></svg>
