<?xml version="1.0" encoding="UTF-8" standalone="no"?>
<svg
   width="50"
   height="50"
   viewBox="0 0 23.076924 23.076924"
   fill="none"
   stroke="currentColor"
   stroke-width="1"
   stroke-linecap="round"
   stroke-linejoin="round"
   class="lucide lucide-anchor-icon lucide-anchor"
   version="1.1"
   id="svg3"
   sodipodi:docname="num9.svg"
   inkscape:version="1.4.3 (0d15f75, 2025-12-25)"
   xml:space="preserve"
   xmlns:inkscape="http://www.inkscape.org/namespaces/inkscape"
   xmlns:sodipodi="http://sodipodi.sourceforge.net/DTD/sodipodi-0.dtd"
   xmlns="http://www.w3.org/2000/svg"
   xmlns:svg="http://www.w3.org/2000/svg"><defs
     id="defs3"><inkscape:path-effect
       effect="spiro"
       id="path-effect6"
       is_visible="true"
       lpeversion="1" /><inkscape:path-effect
       effect="spiro"
       id="path-effect6-4"
       is_visible="true"
       lpeversion="1" /></defs><sodipodi:namedview
     id="namedview3"
     pagecolor="#ffffff"
     bordercolor="#000000"
     borderopacity="0.25"
     inkscape:showpageshadow="2"
     inkscape:pageopacity="0.0"
     inkscape:pagecheckerboard="0"
     inkscape:deskcolor="#d1d1d1"
     showguides="true"
     inkscape:zoom="6.91"
     inkscape:cx="41.027496"
     inkscape:cy="43.198263"
     inkscape:window-width="1920"
     inkscape:window-height="1129"
     inkscape:window-x="2728"
     inkscape:window-y="311"
     inkscape:window-maximized="1"
     inkscape:current-layer="svg3"
     showgrid="false"><sodipodi:guide
       position="6.9423732,21.910822"
       orientation="0,-1"
       id="guide3"
       inkscape:locked="false" /><sodipodi:guide
       position="8.2440681,1.1921774"
       orientation="0,-1"
       id="guide4"
       inkscape:locked="false" /><sodipodi:guide
       position="1.1118645,16.514212"
       orientation="1,0"
       id="guide5"
       inkscape:locked="false" /><sodipodi:guide
       position="21.884747,15.456585"
       orientation="1,0"
       id="guide6"
       inkscape:locked="false" /><sodipodi:guide
       position="11.525424,11.822686"
       orientation="1,0"
       id="guide7"
       inkscape:locked="false" /><sodipodi:guide
       position="-2.0067797,11.524381"
       orientation="0,-1"
       id="guide8"
       inkscape:locked="false" /></sodipodi:namedview><g
     style="fill:none;stroke:currentColor;stroke-width:1.71010906;stroke-linecap:round;stroke-linejoin:round;stroke-dasharray:none"
     id="g927"
     transform="matrix(0.97159799,0,0,0.97159799,-0.25429955,-1.9725128)"><path
       d="m 12,14 4,-4"
       id="path915"
       style="stroke-width:1.71010906;stroke-dasharray:none" /><path
       d="m 3.34,19 a 10,10 0 1 1 17.32,0"
       id="path917"
       style="stroke-width:1.71010906;stroke-dasharray:none" /></g><path
     d="M 9.4082588,20.281588 10.55249,20.155386 q 0.04207,0.349158 0.21875,0.517428 0.176683,0.168269 0.466948,0.168269 0.365986,0 0.622596,-0.336539 0.256611,-0.336538 0.328126,-1.396635 -0.445914,0.517428 -1.114785,0.517428 -0.727765,0 -1.257813,-0.559495 -0.5258417,-0.563703 -0.5258417,-1.463944 0,-0.938101 0.5552888,-1.510217 0.5594959,-0.576322 1.4218759,-0.576322 0.938101,0 1.539664,0.727765 0.601563,0.723558 0.601563,2.385217 0,1.691107 -0.626803,2.439906 -0.626803,0.748798 -1.632213,0.748798 -0.723558,0 -1.1694714,-0.382812 -0.4459138,-0.38702 -0.5721158,-1.152645 z m 2.6754822,-2.582935 q 0,-0.572115 -0.265024,-0.88762 -0.260817,-0.315505 -0.60577,-0.315505 -0.328125,0 -0.546875,0.260817 -0.214543,0.256611 -0.214543,0.845553 0,0.597357 0.235577,0.879208 0.235577,0.277644 0.588942,0.277644 0.340746,0 0.572116,-0.269231 0.235577,-0.269231 0.235577,-0.790866 z"
     id="text1"
     style="font-weight:bold;font-size:8.61539px;font-family:Arial;-inkscape-font-specification:'Arial, Bold';fill:#1a1a1a;stroke:#000000;stroke-width:0.17444"
     aria-label="9" /></svg>
