<?xml version="1.0" encoding="UTF-8" standalone="no"?>
<svg
   width="52"
   height="52"
   viewBox="0 0 24 24"
   fill="none"
   stroke="currentColor"
   stroke-width="1.25"
   stroke-linecap="round"
   stroke-linejoin="round"
   class="lucide lucide-gem-icon lucide-gem"
   version="1.1"
   id="svg3"
   sodipodi:docname="propose.svg"
   inkscape:version="1.4.3 (0d15f75, 2025-12-25)"
   xmlns:inkscape="http://www.inkscape.org/namespaces/inkscape"
   xmlns:sodipodi="http://sodipodi.sourceforge.net/DTD/sodipodi-0.dtd"
   xmlns="http://www.w3.org/2000/svg"
   xmlns:svg="http://www.w3.org/2000/svg">
  <defs
     id="defs3" />
  <sodipodi:namedview
     id="namedview3"
     pagecolor="#ffffff"
     bordercolor="#000000"
     borderopacity="0.25"
     inkscape:showpageshadow="2"
     inkscape:pageopacity="0.0"
     inkscape:pagecheckerboard="0"
     inkscape:deskcolor="#d1d1d1"
     inkscape:zoom="17.019231"
     inkscape:cx="26"
     inkscape:cy="26"
     inkscape:window-width="1920"
     inkscape:window-height="1129"
     inkscape:window-x="2728"
     inkscape:window-y="311"
     inkscape:window-maximized="1"
     inkscape:current-layer="svg3" />
  <path
     d="M10.5 3 8 9l4 13 4-13-2.5-6"
     id="path1"
     style="stroke-width:1.66153846;stroke-dasharray:none" />
  <path
     d="M17 3a2 2 0 0 1 1.6.8l3 4a2 2 0 0 1 .013 2.382l-7.99 10.986a2 2 0 0 1-3.247 0l-7.99-10.986A2 2 0 0 1 2.4 7.8l2.998-3.997A2 2 0 0 1 7 3z"
     id="path2"
     style="stroke-width:1.66153846;stroke-dasharray:none" />
  <path
     d="M2 9h20"
     id="path3"
     style="stroke-width:1.66153846;stroke-dasharray:none" />
</svg>
