<?xml version="1.0" encoding="UTF-8" standalone="no"?>
<svg
   width="50"
   height="50"
   viewBox="0 0 23.076924 23.076924"
   fill="none"
   stroke="currentColor"
   stroke-width="1"
   stroke-linecap="round"
   stroke-linejoin="round"
   class="lucide lucide-anchor-icon lucide-anchor"
   version="1.1"
   id="svg3"
   sodipodi:docname="save.svg"
   inkscape:version="1.4.3 (0d15f75, 2025-12-25)"
   xml:space="preserve"
   xmlns:inkscape="http://www.inkscape.org/namespaces/inkscape"
   xmlns:sodipodi="http://sodipodi.sourceforge.net/DTD/sodipodi-0.dtd"
   xmlns="http://www.w3.org/2000/svg"
   xmlns:svg="http://www.w3.org/2000/svg"><defs
     id="defs3" /><sodipodi:namedview
     id="namedview3"
     pagecolor="#ffffff"
     bordercolor="#000000"
     borderopacity="0.25"
     inkscape:showpageshadow="2"
     inkscape:pageopacity="0.0"
     inkscape:pagecheckerboard="0"
     inkscape:deskcolor="#d1d1d1"
     showguides="true"
     inkscape:zoom="17.019231"
     inkscape:cx="23.355932"
     inkscape:cy="25.118644"
     inkscape:window-width="1920"
     inkscape:window-height="1129"
     inkscape:window-x="2728"
     inkscape:window-y="311"
     inkscape:window-maximized="1"
     inkscape:current-layer="svg3"
     showgrid="false"><sodipodi:guide
       position="6.9423732,21.910822"
       orientation="0,-1"
       id="guide3"
       inkscape:locked="false" /><sodipodi:guide
       position="8.2440681,1.1921774"
       orientation="0,-1"
       id="guide4"
       inkscape:locked="false" /><sodipodi:guide
       position="1.1118645,16.514212"
       orientation="1,0"
       id="guide5"
       inkscape:locked="false" /><sodipodi:guide
       position="21.884747,15.456585"
       orientation="1,0"
       id="guide6"
       inkscape:locked="false" /><sodipodi:guide
       position="11.525424,11.822686"
       orientation="1,0"
       id="guide7"
       inkscape:locked="false" /><sodipodi:guide
       position="-2.0067797,11.524381"
       orientation="0,-1"
       id="guide8"
       inkscape:locked="false" /></sodipodi:namedview><g
     style="fill:none;stroke:currentColor;stroke-width:1.7325;stroke-linecap:round;stroke-linejoin:round;stroke-dasharray:none"
     id="g1343"
     transform="matrix(0.959041,0,0,0.959041,0.02997,0.02997)"><path
       d="m 15.2,3 a 2,2 0 0 1 1.4,0.6 l 3.8,3.8 A 2,2 0 0 1 21,8.8 V 19 a 2,2 0 0 1 -2,2 H 5 A 2,2 0 0 1 3,19 V 5 A 2,2 0 0 1 5,3 Z"
       id="path1328"
       style="stroke-width:1.7325;stroke-dasharray:none" /><path
       d="M 17,21 V 14 A 1,1 0 0 0 16,13 H 8 a 1,1 0 0 0 -1,1 v 7"
       id="path1330"
       style="stroke-width:1.7325;stroke-dasharray:none" /><path
       d="m 7,3 v 4 a 1,1 0 0 0 1,1 h 7"
       id="path1332"
       style="stroke-width:1.7325;stroke-dasharray:none" /></g></svg>
