<?xml version="1.0" encoding="UTF-8" standalone="no"?>
<svg
   width="50"
   height="50"
   viewBox="0 0 23.076924 23.076924"
   fill="none"
   stroke="currentColor"
   stroke-width="1"
   stroke-linecap="round"
   stroke-linejoin="round"
   class="lucide lucide-anchor-icon lucide-anchor"
   version="1.1"
   id="svg3"
   sodipodi:docname="selectchart.svg"
   inkscape:version="1.4.3 (0d15f75, 2025-12-25)"
   xml:space="preserve"
   xmlns:inkscape="http://www.inkscape.org/namespaces/inkscape"
   xmlns:sodipodi="http://sodipodi.sourceforge.net/DTD/sodipodi-0.dtd"
   xmlns="http://www.w3.org/2000/svg"
   xmlns:svg="http://www.w3.org/2000/svg"><defs
     id="defs3" /><sodipodi:namedview
     id="namedview3"
     pagecolor="#ffffff"
     bordercolor="#000000"
     borderopacity="0.25"
     inkscape:showpageshadow="2"
     inkscape:pageopacity="0.0"
     inkscape:pagecheckerboard="0"
     inkscape:deskcolor="#d1d1d1"
     showguides="true"
     inkscape:zoom="17.019231"
     inkscape:cx="17.362712"
     inkscape:cy="26.117514"
     inkscape:window-width="1920"
     inkscape:window-height="1129"
     inkscape:window-x="2728"
     inkscape:window-y="311"
     inkscape:window-maximized="1"
     inkscape:current-layer="svg3"
     showgrid="false"><sodipodi:guide
       position="6.9423732,21.910822"
       orientation="0,-1"
       id="guide3"
       inkscape:locked="false" /><sodipodi:guide
       position="8.2440681,1.1921774"
       orientation="0,-1"
       id="guide4"
       inkscape:locked="false" /><sodipodi:guide
       position="1.1118645,16.514212"
       orientation="1,0"
       id="guide5"
       inkscape:locked="false" /><sodipodi:guide
       position="21.884747,15.456585"
       orientation="1,0"
       id="guide6"
       inkscape:locked="false" /><sodipodi:guide
       position="11.525424,11.822686"
       orientation="1,0"
       id="guide7"
       inkscape:locked="false" /><sodipodi:guide
       position="-2.0067797,11.524381"
       orientation="0,-1"
       id="guide8"
       inkscape:locked="false" /></sodipodi:namedview><g
     style="fill:none;stroke:currentColor;stroke-width:1.66153853;stroke-linecap:round;stroke-linejoin:round;stroke-dasharray:none"
     id="g1919"
     transform="translate(-0.46153702,-0.46191226)"><path
       d="m 14.106,5.553 a 2,2 0 0 0 1.788,0 l 3.659,-1.83 A 1,1 0 0 1 21,4.619 v 12.764 a 1,1 0 0 1 -0.553,0.894 l -4.553,2.277 a 2,2 0 0 1 -1.788,0 L 9.894,18.448 a 2,2 0 0 0 -1.788,0 l -3.659,1.83 A 1,1 0 0 1 3,19.381 V 6.618 A 1,1 0 0 1 3.553,5.724 L 8.106,3.447 a 2,2 0 0 1 1.788,0 z"
       id="path1904"
       style="stroke-width:1.66153853;stroke-dasharray:none" /><path
       d="m 15,5.764 v 15"
       id="path1906"
       style="stroke-width:1.66153853;stroke-dasharray:none" /><path
       d="m 9,3.236 v 15"
       id="path1908"
       style="stroke-width:1.66153853;stroke-dasharray:none" /></g></svg>
