<?xml version="1.0" encoding="UTF-8" standalone="no"?>
<svg
   width="50"
   height="50"
   viewBox="0 0 23.076924 23.076924"
   fill="none"
   stroke="currentColor"
   stroke-width="1"
   stroke-linecap="round"
   stroke-linejoin="round"
   class="lucide lucide-anchor-icon lucide-anchor"
   version="1.1"
   id="svg3"
   sodipodi:docname="statusadd.svg"
   inkscape:version="1.4.3 (0d15f75, 2025-12-25)"
   xml:space="preserve"
   xmlns:inkscape="http://www.inkscape.org/namespaces/inkscape"
   xmlns:sodipodi="http://sodipodi.sourceforge.net/DTD/sodipodi-0.dtd"
   xmlns="http://www.w3.org/2000/svg"
   xmlns:svg="http://www.w3.org/2000/svg"><defs
     id="defs3" /><sodipodi:namedview
     id="namedview3"
     pagecolor="#ffffff"
     bordercolor="#000000"
     borderopacity="0.25"
     inkscape:showpageshadow="2"
     inkscape:pageopacity="0.0"
     inkscape:pagecheckerboard="0"
     inkscape:deskcolor="#d1d1d1"
     showguides="true"
     inkscape:zoom="10.48"
     inkscape:cx="14.933206"
     inkscape:cy="26.383588"
     inkscape:window-width="1920"
     inkscape:window-height="1129"
     inkscape:window-x="2728"
     inkscape:window-y="311"
     inkscape:window-maximized="1"
     inkscape:current-layer="svg3"
     showgrid="false"><sodipodi:guide
       position="6.9423732,21.910822"
       orientation="0,-1"
       id="guide3"
       inkscape:locked="false" /><sodipodi:guide
       position="8.2440681,1.1921774"
       orientation="0,-1"
       id="guide4"
       inkscape:locked="false" /><sodipodi:guide
       position="1.1118645,16.514212"
       orientation="1,0"
       id="guide5"
       inkscape:locked="false" /><sodipodi:guide
       position="21.884747,15.456585"
       orientation="1,0"
       id="guide6"
       inkscape:locked="false" /><sodipodi:guide
       position="11.525424,11.822686"
       orientation="1,0"
       id="guide7"
       inkscape:locked="false" /><sodipodi:guide
       position="-2.0067797,11.524381"
       orientation="0,-1"
       id="guide8"
       inkscape:locked="false" /></sodipodi:namedview><g
     style="fill:none;stroke:currentColor;stroke-width:2;stroke-linecap:round;stroke-linejoin:round"
     id="g1"
     transform="matrix(0.62937065,0,0,0.62937065,0.56088255,0.56264385)"><path
       d="M 19,5 22,2"
       id="path1" /><path
       d="M 2,22 5,19"
       id="path2" /><path
       d="m 6.3,20.3 a 2.4,2.4 0 0 0 3.4,0 L 12,18 6,12 3.7,14.3 a 2.4,2.4 0 0 0 0,3.4 z"
       id="path3" /><path
       d="M 7.5,13.5 10,11"
       id="path4" /><path
       d="M 10.5,16.5 13,14"
       id="path5" /><path
       d="m 12,6 6,6 2.3,-2.3 a 2.4,2.4 0 0 0 0,-3.4 L 17.7,3.7 a 2.4,2.4 0 0 0 -3.4,0 z"
       id="path6" /></g><g
     style="fill:none;stroke:currentColor;stroke-width:3.23804;stroke-linecap:round;stroke-linejoin:round;stroke-dasharray:none"
     id="g7586"
     transform="matrix(0.69524349,0,0,0.69524349,7.5337177,7.5566184)"><path
       d="M 5,12 H 19"
       id="path7574"
       style="stroke-width:3.23804;stroke-dasharray:none" /><path
       d="M 12,5 V 19"
       id="path7576"
       style="stroke-width:3.23804;stroke-dasharray:none" /></g></svg>
