<?xml version="1.0" encoding="UTF-8" standalone="no"?>
<svg
   xmlns:cc="http://creativecommons.org/ns#"
   xmlns:rdf="http://www.w3.org/1999/02/22-rdf-syntax-ns#"
   xmlns:svg="http://www.w3.org/2000/svg"
   xmlns="http://www.w3.org/2000/svg"
   xmlns:sodipodi="http://sodipodi.sourceforge.net/DTD/sodipodi-0.dtd"
   xmlns:inkscape="http://www.inkscape.org/namespaces/inkscape"
   version="1.1"
   x="0px"
   y="0px"
   width="45.7px"
   height="72px"
   viewBox="0 0 45.7 72"
   enable-background="new 0 0 45.7 72"
   xml:space="preserve"
   id="svg2837"
   sodipodi:docname="ais-aton-west.svg"
   inkscape:version="1.0.2 (1.0.2+r75+1)"
   inkscape:export-filename="/home/andreas/projects/avnav/viewer/images/ais-aton-west.png"
   inkscape:export-xdpi="210.06564"
   inkscape:export-ydpi="210.06564"><defs
   id="defs2841" /><sodipodi:namedview
   pagecolor="#ffffff"
   bordercolor="#666666"
   borderopacity="1"
   objecttolerance="10"
   gridtolerance="10"
   guidetolerance="10"
   inkscape:pageopacity="0"
   inkscape:pageshadow="2"
   inkscape:window-width="1680"
   inkscape:window-height="1026"
   id="namedview2839"
   showgrid="false"
   inkscape:zoom="12.347222"
   inkscape:cx="22.85"
   inkscape:cy="36"
   inkscape:window-x="0"
   inkscape:window-y="0"
   inkscape:window-maximized="1"
   inkscape:current-layer="svg2837" />
<g
   id="Layer_2">
	<g
   id="g2825">
		<path
   d="M22.9,28.9l19.8,19.8L22.9,68.6L3,48.8L22.9,28.9 M22.9,25.9L0,48.8l22.9,22.9l22.9-22.9L22.9,25.9L22.9,25.9z"
   id="path2823" />
	</g>
	<g
   id="g2829">
		<path
   d="M23.7,42v5.8h5.5v1.5h-5.5v5.8h-1.6v-5.8h-5.5v-1.5h5.5V42H23.7z"
   id="path2827" />
	</g>
</g>
<g
   id="Layer_3">
	<polygon
   stroke="#000000"
   stroke-width="0.2564"
   stroke-miterlimit="10"
   points="28.5,24.1 17.5,24.1 23,16.9  "
   id="polygon2832" />
	<polygon
   stroke="#000000"
   stroke-width="0.2564"
   stroke-miterlimit="10"
   points="17.5,7.5 28.5,7.5 22.9,14.6  "
   id="polygon2834" />
</g>
<path
   style="opacity:0.993;fill:#f1b704;stroke:#000000;stroke-width:0.999998;stroke-linejoin:round"
   d="M 12.98305,58.666233 3.0756048,48.7964 l 9.9276922,-9.921135 9.927692,-9.921135 9.84027,9.84002 c 5.41215,5.412012 9.840271,9.861387 9.840271,9.887502 0,0.02612 -4.437233,4.504042 -9.860517,9.950948 l -9.860518,9.903465 z M 23.740889,52.23847 v -2.915635 h 2.753656 2.753656 v -0.769404 -0.769404 h -2.753656 -2.753656 v -2.915636 -2.915635 h -0.850394 -0.850393 v 2.915635 2.915636 H 19.286446 16.53279 v 0.769404 0.769404 h 2.753656 2.753656 v 2.915635 2.915636 h 0.850393 0.850394 z"
   id="path3406" /></svg>
