<?xml version="1.0" encoding="UTF-8" standalone="no"?>
<svg
   xmlns:cc="http://creativecommons.org/ns#"
   xmlns:rdf="http://www.w3.org/1999/02/22-rdf-syntax-ns#"
   xmlns:svg="http://www.w3.org/2000/svg"
   xmlns="http://www.w3.org/2000/svg"
   xmlns:sodipodi="http://sodipodi.sourceforge.net/DTD/sodipodi-0.dtd"
   xmlns:inkscape="http://www.inkscape.org/namespaces/inkscape"
   version="1.1"
   id="Layer_2"
   x="0px"
   y="0px"
   width="45.7px"
   height="72px"
   viewBox="0 0 45.7 72"
   enable-background="new 0 0 45.7 72"
   xml:space="preserve"
   sodipodi:docname="ais-aton-special.svg"
   inkscape:export-filename="/home/andreas/projects/avnav/viewer/images/ais-aton-special.png"
   inkscape:export-xdpi="210.06564"
   inkscape:export-ydpi="210.06564"
   inkscape:version="1.0.2 (1.0.2+r75+1)"><defs
   id="defs4804" /><sodipodi:namedview
   pagecolor="#ffffff"
   bordercolor="#666666"
   borderopacity="1"
   objecttolerance="10"
   gridtolerance="10"
   guidetolerance="10"
   inkscape:pageopacity="0"
   inkscape:pageshadow="2"
   inkscape:window-width="1680"
   inkscape:window-height="1026"
   id="namedview4802"
   showgrid="false"
   inkscape:zoom="12.347222"
   inkscape:cx="22.85"
   inkscape:cy="36"
   inkscape:window-x="0"
   inkscape:window-y="0"
   inkscape:window-maximized="1"
   inkscape:current-layer="Layer_2" />
<g
   id="g4791">
	<path
   fill="#231F20"
   d="M22.9,28.9l19.8,19.8L22.9,68.6L3,48.8L22.9,28.9 M22.9,25.9L0,48.8l22.9,22.9l22.9-22.9L22.9,25.9   L22.9,25.9z"
   id="path4789" />
</g>
<g
   id="g4795">
	<path
   d="M23.7,42v5.8h5.5v1.5h-5.5v5.8h-1.6v-5.8h-5.5v-1.5h5.5V42H23.7z"
   id="path4793" />
</g>
<g
   id="g4799">
	<path
   d="M17.4,11.7H21l1.9,3.3l1.8-3.3h3.6L25,16.8l3.6,5.5H25l-2.1-3.4l-2.1,3.4h-3.7l3.7-5.5L17.4,11.7z"
   id="path4797" />
</g>
<path
   style="opacity:0.99199999;fill:#f1b704;stroke:#000000;stroke-width:0.999998;stroke-linejoin:round"
   d="M 12.983084,58.665909 3.075672,48.7964 l 9.927659,-9.921135 9.927658,-9.921135 9.84027,9.84002 c 5.41215,5.412012 9.840271,9.863508 9.840271,9.892216 0,0.02871 -4.437233,4.506487 -9.860517,9.950623 l -9.860518,9.898428 z M 23.740889,52.23847 v -2.915635 h 2.753656 2.753656 v -0.769404 -0.769404 h -2.753656 -2.753656 v -2.915636 -2.915635 h -0.850394 -0.850393 v 2.915635 2.915636 H 19.286446 16.53279 v 0.769404 0.769404 h 2.753656 2.753656 v 2.915635 2.915636 h 0.850393 0.850394 z"
   id="path5369" /></svg>
