<?xml version="1.0" encoding="UTF-8" standalone="no"?>
<svg
   xmlns:dc="http://purl.org/dc/elements/1.1/"
   xmlns:cc="http://creativecommons.org/ns#"
   xmlns:rdf="http://www.w3.org/1999/02/22-rdf-syntax-ns#"
   xmlns:svg="http://www.w3.org/2000/svg"
   xmlns="http://www.w3.org/2000/svg"
   xmlns:sodipodi="http://sodipodi.sourceforge.net/DTD/sodipodi-0.dtd"
   xmlns:inkscape="http://www.inkscape.org/namespaces/inkscape"
   width="100"
   height="100.28819"
   version="1.1"
   id="svg873"
   sodipodi:docname="ais-default-achor.svg"
   inkscape:version="0.92.3 (2405546, 2018-03-11)"
   inkscape:export-filename="/home/andreas/avnav/user/images/ais-default-achor.png"
   inkscape:export-xdpi="96"
   inkscape:export-ydpi="96">
  <metadata
     id="metadata879">
    <rdf:RDF>
      <cc:Work
         rdf:about="">
        <dc:format>image/svg+xml</dc:format>
        <dc:type
           rdf:resource="http://purl.org/dc/dcmitype/StillImage" />
        <dc:title></dc:title>
      </cc:Work>
    </rdf:RDF>
  </metadata>
  <defs
     id="defs877" />
  <sodipodi:namedview
     pagecolor="#ffffff"
     bordercolor="#666666"
     borderopacity="1"
     objecttolerance="10"
     gridtolerance="10"
     guidetolerance="10"
     inkscape:pageopacity="0"
     inkscape:pageshadow="2"
     inkscape:window-width="1920"
     inkscape:window-height="994"
     id="namedview875"
     showgrid="false"
     inkscape:zoom="2.7166667"
     inkscape:cx="27.15338"
     inkscape:cy="104.20322"
     inkscape:window-x="1680"
     inkscape:window-y="31"
     inkscape:window-maximized="1"
     inkscape:current-layer="g871" />
  <!-- Created with SVG-edit - http://svg-edit.googlecode.com/ -->
  <g
     id="g871"
     transform="translate(-22.84662,-198.08681)">
    <title
       id="title867">Layer 1</title>
    <path
       id="svg_1"
       d="M 46.5,296.875 73,204.11457 99.5,296.875 Z"
       stroke-linecap="null"
       stroke-linejoin="null"
       inkscape:connector-curvature="0"
       style="fill:#f7c204;stroke:#000000;stroke-width:3;stroke-miterlimit:4;stroke-dasharray:none"
       inkscape:export-xdpi="96"
       inkscape:export-ydpi="96" />
    <g
       transform="matrix(0.03600977,0,0,0.03414758,56.007377,259.95322)"
       id="g6"
       style="opacity:1;stroke-width:28.51739502">
      <path
         d="m 990,612.3 -41.2,280.5 -83.4,-81 c -66.1,55.9 -188.7,131.9 -366.8,131.9 -179.1,0 -303,-74.2 -368.9,-127.3 l -76.1,73.9 -43.6,-278 286.5,42.2 -78.9,76.6 c 55.4,41.1 142.3,90.7 228.8,90.7 L 446.2,364.1 C 383,342.1 337.5,284 337.5,215.1 c 0,-87.7 73.3,-158.9 163.7,-158.9 90.4,0 163.7,71.1 163.7,158.9 0,70 -46.9,128.7 -111.6,149.9 0.4,89.3 1.8,458.5 -0.1,458.5 82.8,0 168.2,-53.9 223.9,-97.4 L 703.3,654.5 Z M 585.5,212.6 c 0,-45.2 -37.8,-81.9 -84.4,-81.9 -46.6,0 -84.4,36.7 -84.4,81.9 0,45.2 37.8,81.9 84.4,81.9 46.6,0.1 84.4,-36.6 84.4,-81.9 z"
         id="path4"
         inkscape:connector-curvature="0"
         style="stroke-width:28.51739502" />
    </g>
  </g>
</svg>
