<?xml version="1.0"?>
<svg width="60" height="60" xmlns="http://www.w3.org/2000/svg" xmlns:svg="http://www.w3.org/2000/svg">
 <!-- Created with SVG-edit - http://svg-edit.googlecode.com/ -->
 <g>
  <title>Layer 1</title>
  <ellipse ry="8" rx="8" id="svg_1" cy="29.9" cx="14" stroke="#000000" fill="#ffff00"/>
  <ellipse id="svg_3" ry="8" rx="8" cy="30" cx="46" stroke="#000000" fill="#ffff00"/>
  <path stroke="#000000" transform="rotate(-20 30.56118965148924,47.93904495239258) " id="svg_6" d="m33.885685,53.531391l0.183079,-1.473282l-2.154793,-0.256367c-5.455374,-0.649158 -10.80315,-3.401554 -13.780748,-7.092945c-0.534182,-0.662285 -0.891642,-1.300362 -0.794502,-1.4179c0.223106,-0.26981 5.655546,-2.417507 6.115028,-2.417507c0.187389,0 0.637674,0.394966 1.000263,0.877735c1.547682,2.05896 5.552286,4.206375 8.372011,4.489147l1.143303,0.114674l-0.19685,-1.273273c-0.204243,-1.321842 -0.14658,-1.599438 0.330456,-1.599438c0.30547,0 9.416393,5.076107 9.676991,5.391293c0.197624,0.23909 -1.055603,1.12598 -5.542351,3.92255c-1.949013,1.214741 -3.766708,2.208618 -4.039032,2.208618c-0.436516,0 -0.473988,-0.176357 -0.312855,-1.473305l0,0z" stroke-linecap="null" stroke-linejoin="null" stroke-dasharray="null" fill="#000000"/>
  <path transform="rotate(163 27.987705230712887,12.702111244201658) " id="svg_9" stroke="#000000" d="m31.312201,18.29446l0.183079,-1.473286l-2.154793,-0.256365c-5.455372,-0.64916 -10.803148,-3.401554 -13.780746,-7.092945c-0.534184,-0.662285 -0.891642,-1.300363 -0.794502,-1.417901c0.223106,-0.26981 5.655544,-2.417507 6.115028,-2.417507c0.187389,0 0.637672,0.394966 1.000261,0.877736c1.547682,2.05896 5.552286,4.206376 8.372011,4.489148l1.143303,0.114674l-0.19685,-1.273273c-0.204243,-1.321842 -0.146582,-1.599439 0.330456,-1.599439c0.30547,0 9.416391,5.076108 9.676989,5.391294c0.197624,0.23909 -1.055603,1.12598 -5.542351,3.922552c-1.949013,1.214741 -3.766706,2.208618 -4.03903,2.208618c-0.436516,0 -0.473988,-0.176357 -0.312855,-1.473305l0,0z" stroke-linecap="null" stroke-linejoin="null" stroke-dasharray="null" fill="#000000"/>
 </g>
</svg>