<?xml version="1.0" encoding="UTF-8" standalone="no"?>
<svg
   width="50"
   height="50"
   viewBox="0 0 23.076924 23.076924"
   fill="none"
   stroke="currentColor"
   stroke-width="1"
   stroke-linecap="round"
   stroke-linejoin="round"
   class="lucide lucide-anchor-icon lucide-anchor"
   version="1.1"
   id="svg3"
   sodipodi:docname="raspbeere.svg"
   inkscape:version="1.2 (dc2aedaf03, 2022-05-15)"
   xml:space="preserve"
   xmlns:inkscape="http://www.inkscape.org/namespaces/inkscape"
   xmlns:sodipodi="http://sodipodi.sourceforge.net/DTD/sodipodi-0.dtd"
   xmlns="http://www.w3.org/2000/svg"
   xmlns:svg="http://www.w3.org/2000/svg"><defs
     id="defs3"><inkscape:path-effect
       effect="spiro"
       id="path-effect6"
       is_visible="true"
       lpeversion="1" /><inkscape:path-effect
       effect="spiro"
       id="path-effect6-4"
       is_visible="true"
       lpeversion="1" /></defs><sodipodi:namedview
     id="namedview3"
     pagecolor="#ffffff"
     bordercolor="#000000"
     borderopacity="0.25"
     inkscape:showpageshadow="2"
     inkscape:pageopacity="0.0"
     inkscape:pagecheckerboard="0"
     inkscape:deskcolor="#d1d1d1"
     showguides="true"
     inkscape:zoom="7.9418414"
     inkscape:cx="25.938569"
     inkscape:cy="28.582792"
     inkscape:window-width="1920"
     inkscape:window-height="1137"
     inkscape:window-x="1912"
     inkscape:window-y="-8"
     inkscape:window-maximized="1"
     inkscape:current-layer="svg3"
     showgrid="false"><sodipodi:guide
       position="6.9423732,21.910822"
       orientation="0,-1"
       id="guide3"
       inkscape:locked="false" /><sodipodi:guide
       position="8.2440681,1.1921774"
       orientation="0,-1"
       id="guide4"
       inkscape:locked="false" /><sodipodi:guide
       position="1.1118645,16.514212"
       orientation="1,0"
       id="guide5"
       inkscape:locked="false" /><sodipodi:guide
       position="21.884747,15.456585"
       orientation="1,0"
       id="guide6"
       inkscape:locked="false" /><sodipodi:guide
       position="11.525424,11.822686"
       orientation="1,0"
       id="guide7"
       inkscape:locked="false" /><sodipodi:guide
       position="-2.0067797,11.524381"
       orientation="0,-1"
       id="guide8"
       inkscape:locked="false" /></sodipodi:namedview><path
     style="fill:#000000;stroke-width:0.40200002;stroke-dasharray:none"
     d="M 10.938869,21.609651 C 10.322194,21.499095 9.742609,21.210962 9.2192754,20.754792 9.0242995,20.584825 8.903642,20.512077 8.6141347,20.389939 8.1849172,20.208864 7.7934109,19.989158 7.3343652,19.671765 6.96788,19.418369 6.9596239,19.413496 6.6268529,19.254525 6.0273634,18.968125 5.4030929,18.34292 5.0845355,17.709882 4.9755832,17.493404 4.8356423,17.071115 4.798697,16.847419 4.785557,16.76792 4.702118,16.496245 4.6131932,16.243722 4.5242792,15.991207 4.4248862,15.673087 4.3922665,15.536792 4.3429915,15.330977 4.2989725,15.243119 4.1322911,15.018319 3.7443987,14.495174 3.551876,13.976222 3.5207342,13.369856 3.4694882,12.37146 3.949722,11.302901 4.6969825,10.752793 4.9656844,10.554995 5.0412392,10.424508 5.0427722,10.155616 5.0434402,10.038953 5.0651102,9.8040021 5.0909522,9.6334971 5.240168,8.649423 5.6859862,7.9736222 6.5583059,7.4092488 6.724308,7.3018293 6.8294609,7.2150074 6.803039,7.2071234 6.44954,7.1016745 6.2775598,6.9870062 6.2154842,6.8153547 6.1846053,6.7299448 6.1455134,6.6976857 6.0175084,6.652232 5.8041038,6.5764581 5.6359122,6.4223263 5.5468881,6.2210327 5.5056072,6.1275197 5.4332059,6.0296706 5.3809523,5.9964917 5.1441694,5.8461377 4.9782988,5.6134615 4.9782988,5.4316915 4.9782988,5.3674123 4.941837,5.3042881 4.8599734,5.2264446 4.7103854,5.0842807 4.6119668,4.869606 4.6234532,4.7105247 4.6300232,4.6192018 4.6102038,4.5592064 4.5452709,4.4740709 4.403359,4.2880191 4.3490796,4.1248971 4.371888,3.9530257 4.388532,3.8273635 4.377363,3.7762162 4.310349,3.6580222 4.2073097,3.4776649 4.2012869,3.2652347 4.295019,3.1114529 4.350645,3.0203489 4.3561195,2.9846853 4.3275408,2.9026366 4.2756393,2.7537499 4.2856015,2.4934686 4.3472508,2.3891807 4.4284993,2.2515614 4.6145506,2.1608081 4.8153187,2.1608081 c 0.1446822,0 0.1884491,-0.015553 0.2868793,-0.1019489 C 5.2666121,1.9145066 5.4122907,1.8625485 5.7098569,1.84216 5.9063218,1.8286887 5.9961555,1.806244 6.079605,1.7495215 6.1966277,1.6701388 6.4343078,1.6192818 6.5487359,1.6492195 c 0.043362,0.011388 0.1167047,-0.013684 0.1982388,-0.067671 0.1047873,-0.069424 0.1676332,-0.085518 0.3306677,-0.08519 0.1106826,2.628e-4 0.254872,0.018288 0.3204078,0.040189 0.1050146,0.03504 0.1321229,0.031867 0.2284275,-0.026825 0.1428431,-0.087052 0.3055274,-0.084318 0.5572018,0.0098 0.1633959,0.060882 0.2490141,0.073254 0.4243123,0.061538 0.1903548,-0.012808 0.2413595,-0.00334 0.3828227,0.070623 0.1276878,0.066794 0.2097911,0.085303 0.3772164,0.085303 0.2481921,0 0.3971121,0.063403 0.5686001,0.2418857 0.09547,0.099318 0.134059,0.1170664 0.255178,0.1170664 0.104046,0 0.179687,0.025509 0.279123,0.09417 0.165424,0.1141648 0.462387,0.4234803 0.598873,0.6237663 0.124377,0.1825477 0.34687,0.6253432 0.401701,0.7994813 0.04688,0.1489639 0.09846,0.2210149 0.09846,0.1375759 0,-0.030222 0.05554,-0.1836755 0.123485,-0.3410049 0.309003,-0.715856 0.854337,-1.3139558 1.198004,-1.3139558 0.103149,0 0.154274,-0.019928 0.213928,-0.083439 0.04318,-0.045884 0.143619,-0.1266364 0.22339,-0.1794701 0.125162,-0.082886 0.175696,-0.096027 0.368941,-0.096027 0.176886,0 0.259336,-0.017958 0.392627,-0.085516 0.147708,-0.074898 0.196819,-0.083441 0.394819,-0.06931 0.187399,0.013361 0.258815,0.00334 0.416933,-0.06132 0.230978,-0.09384 0.38294,-0.098005 0.545704,-0.014999 0.11366,0.057922 0.136666,0.05913 0.316859,0.0161 0.233059,-0.055732 0.407307,-0.034707 0.591554,0.071287 0.07486,0.043144 0.159537,0.069424 0.188041,0.058474 0.09069,-0.034823 0.336462,0.020586 0.458303,0.1032627 0.09138,0.061974 0.160035,0.079935 0.306135,0.079935 0.260995,0 0.50701,0.080375 0.654857,0.2139517 0.109388,0.098769 0.145611,0.1123692 0.300411,0.1123692 0.197834,0 0.366454,0.074126 0.463077,0.2035271 0.0859,0.114964 0.105867,0.3413009 0.0434,0.4907243 -0.04828,0.1156758 -0.0469,0.1294728 0.03171,0.3011579 0.09379,0.2050055 0.0863,0.3079794 -0.03882,0.5255556 -0.05788,0.10074 -0.07244,0.1631658 -0.058,0.2510722 0.02916,0.1796789 -0.01334,0.33323 -0.137149,0.4954109 -0.09038,0.1183253 -0.112872,0.1773793 -0.112872,0.2954856 0,0.1912414 -0.06172,0.3305802 -0.208222,0.4700722 -0.06998,0.066576 -0.118098,0.1435541 -0.118098,0.1886794 0,0.1915922 -0.204883,0.4821499 -0.44529,0.631497 -0.05714,0.035478 -0.112274,0.1032605 -0.124354,0.152939 -0.04881,0.2008553 -0.177279,0.3364927 -0.428313,0.452486 -0.157232,0.072601 -0.242053,0.130601 -0.242053,0.1653885 0,0.1000845 -0.266549,0.3161049 -0.46808,0.3793522 l -0.189959,0.059673 0.255592,0.157603 c 0.68173,0.4203703 1.118663,0.9393013 1.356699,1.6112699 0.109276,0.3086354 0.187548,0.7648594 0.187732,1.0948263 1.6e-4,0.297454 0.08302,0.460513 0.324002,0.637393 0.505156,0.370815 0.93717,1.033611 1.130848,1.734981 0.08064,0.292205 0.09934,1.014112 0.03434,1.328585 -0.09596,0.463916 -0.322614,0.938802 -0.625752,1.310998 -0.09248,0.113592 -0.14873,0.223359 -0.176324,0.344373 -0.0222,0.09766 -0.126302,0.441952 -0.231189,0.765011 -0.104909,0.323044 -0.215251,0.696521 -0.245257,0.829932 -0.211915,0.942085 -0.95044,1.82473 -1.916194,2.290127 -0.147693,0.07116 -0.437397,0.246044 -0.64379,0.388601 -0.390797,0.269932 -0.962684,0.579849 -1.353675,0.733608 -0.159554,0.06272 -0.289179,0.145781 -0.432307,0.276939 -0.407305,0.373219 -0.950664,0.677402 -1.460894,0.81782 -0.209177,0.05754 -0.368055,0.07383 -0.799472,0.08205 -0.296135,0.005 -0.609505,-0.002 -0.696379,-0.01812 z m 1.342362,-0.67328 c 0.833188,-0.240356 1.668115,-0.957768 1.591275,-1.36732 -0.07316,-0.389677 -1.022638,-0.700544 -2.139377,-0.700405 -0.774611,9.8e-5 -1.398852,0.116415 -1.91109,0.356117 -0.6252659,0.292583 -0.6678833,0.575583 -0.157843,1.048081 0.407132,0.377159 1.028404,0.676632 1.551937,0.748084 0.300835,0.04102 0.754491,0.005 1.065098,-0.08452 z m 3.209897,-1.952115 c 0.632004,-0.133943 1.328965,-0.640976 1.753397,-1.275548 0.310012,-0.463505 0.407843,-0.855932 0.386116,-1.548832 -0.01243,-0.395859 -0.02896,-0.516299 -0.100639,-0.737165 -0.160094,-0.49246 -0.360735,-0.663925 -0.778486,-0.66529 -0.277417,-8.96e-4 -0.511099,0.08322 -0.862202,0.310552 -0.306896,0.198672 -0.890817,0.747749 -1.118455,1.051721 -0.483842,0.646071 -0.791146,1.632896 -0.689773,2.215008 0.0442,0.253745 0.138759,0.443848 0.260501,0.523608 0.248139,0.162596 0.728405,0.215216 1.149555,0.125946 z M 8.5354926,18.876841 C 8.9324294,18.682703 9.0269059,18.057096 8.7782534,17.269383 8.56014,16.578376 8.1168296,15.985187 7.4856832,15.539794 7.0110996,15.204866 6.685107,15.08263 6.2695333,15.083762 c -0.4293055,10e-4 -0.6048562,0.122021 -0.7573561,0.521391 -0.079499,0.208205 -0.079499,0.913407 -2.24e-5,1.207386 0.1541108,0.569964 0.3444104,0.93378 0.668782,1.278583 0.3824937,0.406591 0.7633787,0.651264 1.2447953,0.7996 0.3339642,0.10295 0.8850547,0.09606 1.1097605,-0.01384 z m 3.7776364,-0.746224 c 0.32321,-0.09358 0.475994,-0.167083 0.746617,-0.358827 0.38276,-0.271189 0.678932,-0.685266 0.814502,-1.138728 0.07978,-0.267081 0.07978,-0.809773 0,-1.076858 -0.172056,-0.575495 -0.589308,-1.067063 -1.131979,-1.333602 -0.44409,-0.218135 -0.649168,-0.264809 -1.155976,-0.26308 -0.490936,0.002 -0.710588,0.04958 -1.109484,0.242324 -0.509771,0.246233 -0.9034,0.661336 -1.098671,1.158574 -0.086941,0.221318 -0.1046819,0.315689 -0.1169788,0.620001 -0.028366,0.703376 0.2094845,1.249413 0.7358158,1.68926 0.621051,0.518995 1.507239,0.695352 2.316154,0.460936 z M 5.2904177,14.923944 c 0.4097702,-0.249878 0.7997985,-1.733461 0.7555822,-2.874079 -0.026828,-0.690961 -0.1613265,-1.013169 -0.4230525,-1.013169 -0.24032,0 -0.7516957,0.432177 -1.0174411,0.859848 -0.2255153,0.362929 -0.3182837,0.678911 -0.3374129,1.149161 -0.030326,0.74604 0.1647319,1.330187 0.5904346,1.768126 0.1846932,0.190004 0.2666217,0.210895 0.4318897,0.110113 z M 18.272236,14.722312 c 0.210569,-0.227444 0.412988,-0.617734 0.498323,-0.960853 0.03992,-0.160777 0.05674,-0.358886 0.05664,-0.668951 -2.03e-4,-0.407532 -0.007,-0.462665 -0.101555,-0.73582 -0.187058,-0.544534 -0.47459,-0.928987 -0.915154,-1.223656 -0.213725,-0.142945 -0.267224,-0.165103 -0.361749,-0.14976 -0.151405,0.02458 -0.219926,0.0954 -0.300613,0.310764 -0.303366,0.809615 0.07102,3.039485 0.588919,3.507342 0.203101,0.18349 0.306341,0.168238 0.535297,-0.07904 z M 9.3020576,14.285999 c 0.8908134,-0.299539 1.5860234,-1.082678 1.7950194,-2.022085 0.08352,-0.375588 0.05704,-0.963413 -0.05825,-1.288593 C 10.822539,10.364882 10.335865,9.9220171 9.722524,9.7774901 9.4482264,9.7128701 8.9038588,9.7309601 8.6330541,9.8138701 7.9298568,10.02887 7.3093642,10.567586 6.9802406,11.248866 c -0.2185621,0.452428 -0.2828828,0.756101 -0.2655263,1.253578 0.01172,0.336965 0.02989,0.454435 0.1008444,0.654654 0.2115433,0.596219 0.6920069,1.040885 1.2882011,1.192194 0.300216,0.07616 0.8735247,0.04596 1.1981925,-0.06315 z m 5.6671674,-0.03196 c 1.217404,-0.232924 1.82567,-1.485695 1.367723,-2.816908 C 16.211775,11.073268 16.013877,10.751239 15.735105,10.457754 15.204003,9.8986451 14.627192,9.6281261 13.9521,9.6215351 c -0.370008,-0.0032 -0.586961,0.04422 -0.90906,0.200481 -0.663508,0.3218589 -1.048917,1.0505699 -1.004862,1.8999739 0.0217,0.41821 0.08014,0.644893 0.265675,1.029688 0.380975,0.790265 1.084082,1.347166 1.892983,1.499356 0.304486,0.05724 0.485007,0.05798 0.772389,0.003 z m 2.364111,-3.922593 C 17.36606,10.200953 17.292274,9.5797641 17.213634,9.3235241 17.087357,8.912234 16.901243,8.5992721 16.612065,8.3119333 16.298895,8.000778 16.080409,7.8658195 15.655637,7.7211919 15.255922,7.5850947 14.812028,7.5359841 14.366079,7.5785139 c -0.176132,0.01686 -0.333982,0.03909 -0.350794,0.049494 -0.189709,0.1172417 0.45115,0.8794594 1.421837,1.6910952 1.072952,0.8971419 1.824445,1.2983599 1.896214,1.0123879 z M 6.3307545,10.26311 C 6.9112793,9.9712881 7.9821668,9.1195505 8.659972,8.4105493 9.0321835,8.0212005 9.1968828,7.7827859 9.182166,7.6546051 9.1723111,7.5693051 9.1573093,7.5597782 8.992052,7.5347354 8.7265364,7.4945493 7.9646468,7.5292603 7.7377414,7.5917853 7.2561499,7.7247075 6.9014898,7.9184018 6.598526,8.2139527 6.1153898,8.6852626 5.8692343,9.2836141 5.8534116,10.025143 c -0.00438,0.22889 0.00438,0.305595 0.040628,0.329305 0.0657,0.0433 0.2425089,0.006 0.4367407,-0.09138 z M 12.514426,9.4857831 c 1.251525,-0.2751727 1.591135,-1.1092777 0.730188,-1.7934553 -0.24679,-0.1961249 -0.71005,-0.4222974 -1.035379,-0.5054946 -0.34937,-0.089352 -0.923171,-0.090885 -1.26525,-0.00328 -0.830718,0.2124618 -1.5525647,0.8374771 -1.4813682,1.2826708 0.079056,0.4943046 0.6501342,0.8875081 1.5346512,1.0566081 0.302635,0.05783 1.183552,0.03636 1.517158,-0.03689 z M 8.7416696,6.9768229 C 9.3089012,6.8318998 9.644825,6.6338146 9.891431,6.2988322 9.968186,6.1944789 10.056523,6.0324738 10.087655,5.9387747 L 10.144262,5.7684034 9.870023,5.5104545 C 9.3214496,4.9944798 8.4548235,4.4027312 7.3604921,3.796912 7.0643604,3.6329686 6.8335344,3.4987986 6.8475504,3.4987654 6.9350431,3.498492 7.8391056,3.8896145 8.4047164,4.1724201 9.044535,4.4923243 9.815327,4.9661851 10.244219,5.3033028 l 0.191589,0.1505953 0.12804,-0.06537 c 0.329805,-0.1682582 0.543872,-0.4884469 0.573525,-0.8578665 0.04076,-0.5077844 -0.267421,-1.2299479 -0.757201,-1.7743809 -0.08476,-0.094277 -0.164402,-0.171324 -0.176961,-0.171324 -0.01263,0 -0.04066,0.066681 -0.06256,0.1481859 L 10.10104,2.881329 9.869442,2.6202037 C 9.742061,2.4765834 9.587984,2.3210495 9.527036,2.2745671 L 9.4162326,2.1900331 v 0.1419777 c 0,0.2408121 -0.048949,0.2433525 -0.2932186,0.015225 C 9.0035714,2.2356837 8.85671,2.1164493 8.7966602,2.0822638 8.6961397,2.0251043 8.6892429,2.0246673 8.7093895,2.0768064 8.760855,2.211075 8.7637014,2.2784286 8.7203395,2.3376791 8.675886,2.3983426 8.666685,2.3950551 8.4739323,2.2501828 8.2675889,2.0950618 7.9224012,1.9138172 7.8917412,1.9444876 c -0.00981,0.00981 0.02124,0.063179 0.068328,0.1191145 0.089571,0.1065429 0.1076406,0.1772169 0.053655,0.2105814 -0.01763,0.01095 -0.1387462,-0.030771 -0.2692156,-0.092527 -0.23329,-0.1104419 -0.6416589,-0.2314064 -0.6735452,-0.19952 -0.00876,0.00876 0.037887,0.071727 0.104025,0.1394154 0.1025968,0.10512 0.1538802,0.2019725 0.1068719,0.2019725 -0.00772,0 -0.1505519,-0.035583 -0.318163,-0.079173 C 6.796084,2.2007741 6.5931375,2.1548952 6.5127207,2.1423018 L 6.3664954,2.1194171 6.4875038,2.2533572 C 6.6642144,2.4489567 6.6286819,2.4924612 6.3554686,2.4150228 6.1196498,2.3482278 5.5850709,2.3238075 5.5314374,2.3774645 c -0.020042,0.020042 0.00438,0.065262 0.066796,0.1253558 0.053981,0.051684 0.098112,0.1058897 0.098112,0.1205268 0,0.014559 -0.1982391,0.026498 -0.440529,0.026498 -0.2422908,0 -0.4405295,0.00659 -0.4405295,0.015663 0,0.00876 0.051246,0.095815 0.1138474,0.1936502 0.1295934,0.2025857 0.2515217,0.4912819 0.2205658,0.5222263 -0.011388,0.011388 -0.1075282,0.01095 -0.213426,-0.00102 l -0.1926549,-0.02179 0.055519,0.1106279 c 0.030554,0.060881 0.1604707,0.2100539 0.2887279,0.3315658 0.1904212,0.18039 0.224224,0.226917 0.1842561,0.2535906 -0.045443,0.030332 -0.2036259,0.018611 -0.312315,-0.023105 -0.1236371,-0.047412 -0.019818,0.1175807 0.2481591,0.3946381 0.2780313,0.2874039 0.2902735,0.3058552 0.2152992,0.3246778 -0.043692,0.01095 -0.1286628,0.01095 -0.188745,-4.266e-4 l -0.109283,-0.020366 0.1468387,0.154504 c 0.080803,0.084972 0.2454768,0.2244204 0.3660262,0.3098958 0.1205481,0.085519 0.2098782,0.1646989 0.1985122,0.1760652 -0.011388,0.011388 -0.091648,0.020693 -0.1783868,0.020693 -0.086724,0 -0.1577236,0.013471 -0.1577236,0.02989 0,0.047089 0.2831665,0.2414802 0.6008812,0.4125846 0.3094796,0.1666696 0.3167287,0.2028377 0.041715,0.2079077 -0.083658,0.00104 -0.1168474,0.014349 -0.1015119,0.0392 0.032518,0.052666 0.451775,0.2407795 0.6826661,0.3063481 0.2656463,0.075441 0.2815895,0.1004047 0.111569,0.1745203 l -0.1441978,0.062852 0.1267355,0.054534 c 0.069748,0.030005 0.2606098,0.069204 0.4242136,0.087055 0.5726733,0.062528 0.595176,0.07468 0.3861732,0.2077213 -0.056396,0.035916 -0.1030353,0.078509 -0.103806,0.094714 -0.00214,0.060663 0.880993,-0.00653 1.2167852,-0.091875 z m 6.8734024,0.086948 c -6.95e-4,-0.013472 -0.04744,-0.053874 -0.103836,-0.08979 -0.209009,-0.1330757 -0.186508,-0.1451865 0.386166,-0.2077213 0.163615,-0.017852 0.354512,-0.057047 0.424216,-0.087056 l 0.12674,-0.054531 -0.144212,-0.062852 c -0.08239,-0.035916 -0.131337,-0.07468 -0.114208,-0.090228 0.01653,-0.015112 0.139612,-0.060006 0.273588,-0.099971 0.252962,-0.075336 0.601173,-0.2361367 0.637012,-0.2941278 0.01264,-0.020366 -0.02778,-0.034269 -0.103728,-0.035695 -0.275064,-0.00542 -0.267804,-0.04128 0.04155,-0.2079077 0.317717,-0.1711045 0.600892,-0.3655327 0.600892,-0.4125847 0,-0.016428 -0.07092,-0.029889 -0.157722,-0.029889 -0.08678,0 -0.167038,-0.0098 -0.178426,-0.020693 -0.01144,-0.011388 0.0421,-0.062302 0.11865,-0.1130367 0.169318,-0.1121494 0.516565,-0.4113911 0.556372,-0.4794456 0.02425,-0.041279 0.01174,-0.045882 -0.07663,-0.028251 -0.05801,0.011605 -0.141257,0.012158 -0.184978,0.00104 -0.07496,-0.018834 -0.06272,-0.03723 0.215286,-0.324678 0.268021,-0.2770457 0.371807,-0.4420732 0.248177,-0.3946378 -0.108742,0.041714 -0.26689,0.053436 -0.312331,0.023107 -0.03992,-0.026612 -0.006,-0.073146 0.184253,-0.2535911 0.128257,-0.1215121 0.258196,-0.2707171 0.288733,-0.3315661 l 0.05554,-0.1106283 -0.19265,0.021794 c -0.105969,0.012042 -0.202009,0.012484 -0.21344,0.00102 -0.03161,-0.031643 0.09507,-0.32873 0.221584,-0.5193797 0.06202,-0.093508 0.112832,-0.1794816 0.112832,-0.1910886 0,-0.011607 -0.198242,-0.021129 -0.440531,-0.021129 -0.242285,0 -0.44053,-0.01193 -0.44053,-0.026496 0,-0.014559 0.0441,-0.068766 0.09806,-0.1205269 0.06272,-0.060111 0.08689,-0.1053366 0.06676,-0.1253446 C 17.554621,2.324229 17.02006,2.348644 16.784235,2.415445 16.511014,2.49287 16.475494,2.449395 16.652212,2.2537954 l 0.121001,-0.1339343 -0.146218,0.022885 c -0.08034,0.012594 -0.28336,0.05847 -0.450981,0.102054 -0.167611,0.043582 -0.310786,0.079172 -0.318156,0.079172 -0.04712,0 0.004,-0.096798 0.106835,-0.2019723 0.0661,-0.067781 0.112929,-0.1304698 0.104076,-0.1394269 -0.03186,-0.031866 -0.440255,0.08913 -0.673556,0.199531 -0.130473,0.061758 -0.251619,0.1033679 -0.269218,0.092526 -0.05396,-0.033395 -0.03588,-0.1041386 0.0536,-0.2105903 0.04714,-0.055959 0.0779,-0.1095763 0.06838,-0.1191142 -0.03066,-0.03066 -0.375853,0.1505845 -0.582185,0.3056802 -0.192741,0.1448905 -0.201979,0.1481755 -0.246513,0.087494 -0.02547,-0.03471 -0.03825,-0.088809 -0.02837,-0.1201654 0.0094,-0.031426 0.02748,-0.088695 0.03932,-0.127217 l 0.0214,-0.07008 -0.108846,0.061974 C 14.282861,2.1166712 14.136238,2.235825 14.016796,2.347372 13.772499,2.575529 13.723578,2.5729886 13.723578,2.33215 V 2.1901795 l -0.110786,0.084534 c -0.06102,0.046534 -0.215029,0.2020277 -0.342405,0.3456366 l -0.231596,0.2611245 -0.03962,-0.1481859 c -0.0218,-0.081468 -0.04988,-0.1481868 -0.06239,-0.1481868 -0.01264,0 -0.09218,0.077088 -0.176953,0.1713237 -0.489789,0.5444447 -0.797968,1.2666075 -0.757202,1.7743914 0.02972,0.3701541 0.243678,0.6895872 0.575196,0.8587099 l 0.129706,0.066138 0.157602,-0.124578 c 0.525357,-0.4152786 1.208486,-0.8352544 1.968045,-1.2099193 0.493524,-0.2434405 1.382447,-0.6225402 1.459259,-0.6223319 0.01398,4.38e-5 -0.21681,0.1342031 -0.512938,0.2981354 -0.630769,0.3491729 -1.192902,0.696693 -1.646016,1.0175717 -0.317236,0.2246502 -0.904777,0.7134689 -1.057689,0.8799634 -0.0763,0.083115 -0.0764,0.084866 -0.0219,0.249189 0.107772,0.3243391 0.419074,0.6591676 0.784366,0.8435003 0.189062,0.095377 0.572386,0.2061772 0.877366,0.2535466 0.29379,0.045658 0.901385,0.061214 0.899428,0.023106 z"
     id="path300" /></svg>
