<?xml version="1.0" encoding="UTF-8" standalone="no"?>
<!-- Generator: Adobe Illustrator 22.0.0, SVG Export Plug-In . SVG Version: 6.00 Build 0)  -->

<svg
   xmlns:dc="http://purl.org/dc/elements/1.1/"
   xmlns:cc="http://creativecommons.org/ns#"
   xmlns:rdf="http://www.w3.org/1999/02/22-rdf-syntax-ns#"
   xmlns:svg="http://www.w3.org/2000/svg"
   xmlns="http://www.w3.org/2000/svg"
   xmlns:xlink="http://www.w3.org/1999/xlink"
   xmlns:sodipodi="http://sodipodi.sourceforge.net/DTD/sodipodi-0.dtd"
   xmlns:inkscape="http://www.inkscape.org/namespaces/inkscape"
   version="1.1"
   id="Ebene_1"
   x="0px"
   y="0px"
   viewBox="0 0 157.19701 111.40195"
   xml:space="preserve"
   sodipodi:docname="signalk.svg"
   width="157.19701"
   height="111.40195"
   inkscape:version="0.92.3 (2405546, 2018-03-11)"><metadata
   id="metadata80"><rdf:RDF><cc:Work
       rdf:about=""><dc:format>image/svg+xml</dc:format><dc:type
         rdf:resource="http://purl.org/dc/dcmitype/StillImage" /><dc:title></dc:title></cc:Work></rdf:RDF></metadata><defs
   id="defs78" /><sodipodi:namedview
   pagecolor="#ffffff"
   bordercolor="#00000"
   borderopacity="1"
   objecttolerance="10"
   gridtolerance="10"
   guidetolerance="10"
   inkscape:pageopacity="0"
   inkscape:pageshadow="2"
   inkscape:window-width="1536"
   inkscape:window-height="890"
   id="namedview76"
   showgrid="false"
   showborder="false"
   inkscape:zoom="0.52909962"
   inkscape:cx="287.28049"
   inkscape:cy="55.074946"
   inkscape:window-x="26"
   inkscape:window-y="52"
   inkscape:window-maximized="0"
   inkscape:current-layer="Ebene_1" />
<style
   type="text/css"
   id="style2">
	.st0{fill:#003399;}
	.st1{clip-path:url(#SVGID_2_);}
	.st2{clip-path:url(#SVGID_4_);fill:#003399;}
	.st3{clip-path:url(#SVGID_4_);fill:#FFCC00;}
</style>
<g
   id="g43"
   transform="translate(0,0.59799999)">
	
	<g
   id="g41">
		<g
   id="g39">
			<defs
   id="defs20">
				<rect
   id="SVGID_1_"
   x="0"
   y="-0.59799999"
   width="157.19701"
   height="111.402" />
			</defs>
			<clipPath
   id="SVGID_2_">
				<use
   xlink:href="#SVGID_1_"
   style="overflow:visible"
   id="use22"
   x="0"
   y="0"
   width="100%"
   height="100%" />
			</clipPath>
			<g
   class="st1"
   clip-path="url(#SVGID_2_)"
   id="g37">
				<defs
   id="defs26">
					<rect
   id="SVGID_3_"
   x="0"
   y="-0.59799999"
   width="157.19701"
   height="111.402" />
				</defs>
				<clipPath
   id="SVGID_4_">
					<use
   xlink:href="#SVGID_3_"
   style="overflow:visible"
   id="use28"
   x="0"
   y="0"
   width="100%"
   height="100%" />
				</clipPath>
				<path
   class="st2"
   d="m 0.607,75.285 c 2.957,-1.872 10.882,6.629 21.713,14.362 7.039,5.026 18.661,8.853 28.952,8.143 16.757,-1.156 23.71,-4.386 37.85,-11.763 11.088,-5.785 22.27,-13.948 31.82,-19.767 5.646,-3.441 12.449,-6.567 20.107,-8.932 9.948,-3.071 16.148,-0.501 16.148,0.494 0,1.708 -11.752,7.285 -20.688,13.323 -11.49,7.764 -16.879,11.531 -19.509,13.257 -7.518,4.935 -20.387,13.411 -25.948,16.092 -8.695,4.192 -18.633,8.229 -30.899,9.782 C 44.08,112.311 26.842,108.394 15.435,99.718 1.721,89.287 -1.548,76.65 0.607,75.285"
   clip-path="url(#SVGID_4_)"
   id="path31"
   inkscape:connector-curvature="0"
   style="fill:#003399" />
				<path
   class="st2"
   d="m 23.112,84.347 c 0,0 12.419,-32.107 14.23,-36.798 5.747,-14.886 8.213,-22.798 17.158,-26.123 4.664,-1.734 13.022,-0.163 16.008,0.066 4.411,0.339 5.467,-0.955 6.464,-3.449 C 79.094,12.74 80.926,8.497 80.636,7.629 80.563,7.41 79.162,7.037 78.997,6.376 c -0.096,-0.386 2.626,-6.609 3.278,-6.963 0.676,-0.365 23.721,8.409 23.914,9.374 0.179,0.896 -1.929,6.653 -2.797,7.135 -0.678,0.377 -1.84,-0.767 -2.7,-0.289 -0.607,0.337 -1.472,2.853 -4.242,9.931 -0.868,2.218 -0.169,4.714 2.218,6.653 3.085,2.507 9.103,6.307 11.956,11.282 3.761,6.557 1.929,10.501 -3.568,24.202 l -0.385,1.061 c 0,0 -9.427,7.917 -26.617,16.06 -10.066,4.768 -19.451,7.009 -26.897,7.863 -1.202,0.138 -4.739,-2.688 -7.6,-2.967 C 42.7,89.438 34.906,90.587 34.248,90.356 28.789,88.433 23.112,84.347 23.112,84.347"
   clip-path="url(#SVGID_4_)"
   id="path33"
   inkscape:connector-curvature="0"
   style="fill:#003399" />
				<path
   class="st3"
   d="m 74.562,38.485 c 0,0 -12.623,-6.709 -17.562,-2.973 -4.817,3.645 -22.751,54.866 -22.751,54.866 0,0 2.231,0.89 6.573,1.863 2.821,0.632 5.248,0.791 8.143,0.746 2.306,-0.036 4.192,-0.279 4.192,-0.279 z"
   clip-path="url(#SVGID_4_)"
   id="path35"
   inkscape:connector-curvature="0"
   style="fill:#ffcc00" />
			</g>
		</g>
	</g>
</g>
<g
   id="g45"
   transform="translate(0,0.59799999)">
</g>
<g
   id="g47"
   transform="translate(0,0.59799999)">
</g>
<g
   id="g49"
   transform="translate(0,0.59799999)">
</g>
<g
   id="g51"
   transform="translate(0,0.59799999)">
</g>
<g
   id="g53"
   transform="translate(0,0.59799999)">
</g>
<g
   id="g55"
   transform="translate(0,0.59799999)">
</g>
<g
   id="g57"
   transform="translate(0,0.59799999)">
</g>
<g
   id="g59"
   transform="translate(0,0.59799999)">
</g>
<g
   id="g61"
   transform="translate(0,0.59799999)">
</g>
<g
   id="g63"
   transform="translate(0,0.59799999)">
</g>
<g
   id="g65"
   transform="translate(0,0.59799999)">
</g>
<g
   id="g67"
   transform="translate(0,0.59799999)">
</g>
<g
   id="g69"
   transform="translate(0,0.59799999)">
</g>
<g
   id="g71"
   transform="translate(0,0.59799999)">
</g>
<g
   id="g73"
   transform="translate(0,0.59799999)">
</g>
</svg>