<?xml version="1.0" encoding="UTF-8" standalone="no"?>
<!-- Created with Inkscape (http://www.inkscape.org/) -->

<svg
   xmlns:dc="http://purl.org/dc/elements/1.1/"
   xmlns:cc="http://creativecommons.org/ns#"
   xmlns:rdf="http://www.w3.org/1999/02/22-rdf-syntax-ns#"
   xmlns:svg="http://www.w3.org/2000/svg"
   xmlns="http://www.w3.org/2000/svg"
   xmlns:sodipodi="http://sodipodi.sourceforge.net/DTD/sodipodi-0.dtd"
   xmlns:inkscape="http://www.inkscape.org/namespaces/inkscape"
   id="svg29947"
   version="1.1"
   inkscape:version="0.91 r"
   xml:space="preserve"
   width="256"
   height="256"
   viewBox="0 0 256 255.99999"
   sodipodi:docname="ais-nearest.svg"><metadata
     id="metadata29953"><rdf:RDF><cc:Work
         rdf:about=""><dc:format>image/svg+xml</dc:format><dc:type
           rdf:resource="http://purl.org/dc/dcmitype/StillImage" /><dc:title></dc:title></cc:Work></rdf:RDF></metadata><defs
     id="defs29951"><clipPath
       clipPathUnits="userSpaceOnUse"
       id="clipPath29967"><path
         d="m 0,841.89 595.28,0 L 595.28,0 0,0 0,841.89 Z"
         id="path29969"
         inkscape:connector-curvature="0" /></clipPath></defs><sodipodi:namedview
     pagecolor="#ffffff"
     bordercolor="#666666"
     borderopacity="1"
     objecttolerance="10"
     gridtolerance="10"
     guidetolerance="10"
     inkscape:pageopacity="0"
     inkscape:pageshadow="2"
     inkscape:window-width="1918"
     inkscape:window-height="1005"
     id="namedview29949"
     showgrid="false"
     inkscape:zoom="2.5371819"
     inkscape:cx="121.14258"
     inkscape:cy="112.35812"
     inkscape:window-x="0"
     inkscape:window-y="24"
     inkscape:window-maximized="0"
     inkscape:current-layer="g29955"
     showguides="false" /><g
     id="g29955"
     inkscape:groupmode="layer"
     inkscape:label="Sail-Boat-256x"
     transform="matrix(1.25,0,0,-1.25,0,255.99995)"><g
       id="g56111"
       transform="matrix(1.4414347,0,0,1.4414347,-76.778529,-76.57677)"><path
         inkscape:connector-curvature="0"
         id="path29957"
         style="fill:none;fill-opacity:1;fill-rule:nonzero;stroke:none"
         d="m 183.38815,154.18678 -38.03003,0 0,40 38.03003,0 0,-40 z" /><g
         style="fill:#000000;fill-opacity:1"
         transform="matrix(0.14852055,0,0,0.14852055,167.93949,192.76463)"
         id="g29959"><path
           inkscape:connector-curvature="0"
           id="path29961"
           style="fill:#000000;fill-opacity:1;fill-rule:nonzero;stroke:none"
           d="m 0,0 0,-171.071 -137.268,0 L 0,0 Z" /></g><g
         transform="matrix(0.15621399,0,0,0.14852055,118.80175,110.67903)"
         id="g29963"><g
           clip-path="url(#clipPath29967)"
           id="g29965"><g
             style="fill:#000000;fill-opacity:1"
             transform="translate(333.3096,511.2012)"
             id="g29971"><path
               inkscape:connector-curvature="0"
               id="path29973"
               style="fill:#000000;fill-opacity:1;fill-rule:nonzero;stroke:none"
               d="m 0,0 0,-129.584 80.926,0 c 0,0 0.186,40.916 -14.247,66.765 C 45.329,-24.585 11.268,-6.659 0,0" /></g><g
             style="fill:#000000;fill-opacity:1"
             transform="translate(219.0913,372.6533)"
             id="g29975"><path
               inkscape:connector-curvature="0"
               id="path29977"
               style="fill:#000000;fill-opacity:1;fill-rule:nonzero;stroke:none"
               d="m 0,0 183.876,0 c 0,0 -19.207,-36.623 -43.536,-38.415 -24.329,-1.792 -18.695,6.914 -31.5,6.146 -20.136,-1.207 -22.351,-6.337 -30.291,-6.39 -7.94,-0.053 -20.416,6.391 -28.611,5.879 -8.194,-0.513 -22.279,-6.041 -30.475,-5.838 C 11.268,-38.415 0,-33.549 0,-33.549 L 0,0 Z" /></g><g
             style="fill:#000000;fill-opacity:1"
             transform="translate(170,316.8242)"
             id="g29979"><path
               inkscape:connector-curvature="0"
               id="path29981"
               style="fill:#000000;fill-opacity:1;fill-rule:nonzero;stroke:none"
               d="m 0,0 c 0,0 9.922,-5.54 35.196,4.084 10.756,4.096 24.651,-6.902 36.176,-5.895 17.754,1.553 19.463,7.446 29.707,6.677 10.243,-0.768 18.294,-7.326 26.561,-6.864 8.267,0.462 22.866,7.889 29.78,7.12 6.914,-0.768 20.204,-6.249 27.401,-7.143 6.43,-0.799 24.585,7.655 29.707,7.399 5.122,-0.256 30.988,-9.219 34.829,-8.707 3.842,0.512 6.702,-0.022 6.702,-0.022 l 0,-20.532 L 0,-23.883 0,0 Z" /></g></g></g></g><path
       style="fill:none;fill-rule:evenodd;stroke:#000000;stroke-width:9.6;stroke-linecap:butt;stroke-linejoin:miter;stroke-miterlimit:4;stroke-dasharray:none;stroke-opacity:1"
       d="m 43.093661,34.368814 107.534669,0 -53.776189,113.278346 z"
       id="path55567"
       inkscape:connector-curvature="0"
       sodipodi:nodetypes="cccc" /><path
       style="fill:none;fill-rule:evenodd;stroke:#000000;stroke-width:0.80000001;stroke-linecap:butt;stroke-linejoin:miter;stroke-miterlimit:4;stroke-dasharray:2.39999999, 0.8;stroke-dashoffset:0;stroke-opacity:1"
       d="m 117.59629,107.21663 23.67731,39.95552"
       id="path56124"
       inkscape:connector-curvature="0"
       sodipodi:nodetypes="cc" /></g></svg>