<?xml version="1.0" encoding="utf-8"?>
<!-- Svg Vector Icons : http://www.onlinewebfonts.com/icon -->
<!DOCTYPE svg PUBLIC "-//W3C//DTD SVG 1.1//EN" "http://www.w3.org/Graphics/SVG/1.1/DTD/svg11.dtd">
<svg version="1.1" xmlns="http://www.w3.org/2000/svg" xmlns:xlink="http://www.w3.org/1999/xlink" x="0px" y="0px" viewBox="0 0 1000 1000" enable-background="new 0 0 1000 1000" xml:space="preserve">
<metadata> Svg Vector Icons : http://www.onlinewebfonts.com/icon </metadata>
<g><path d="M990,612.3l-41.2,280.5l-83.4-81c-66.1,55.9-188.7,131.9-366.8,131.9c-179.1,0-303-74.2-368.9-127.3l-76.1,73.9L10,612.3l286.5,42.2l-78.9,76.6c55.4,41.1,142.3,90.7,228.8,90.7l-0.2-457.7c-63.2-22-108.7-80.1-108.7-149c0-87.7,73.3-158.9,163.7-158.9c90.4,0,163.7,71.1,163.7,158.9c0,70-46.9,128.7-111.6,149.9c0.4,89.3,1.8,458.5-0.1,458.5c82.8,0,168.2-53.9,223.9-97.4l-73.8-71.6L990,612.3z M585.5,212.6c0-45.2-37.8-81.9-84.4-81.9c-46.6,0-84.4,36.7-84.4,81.9s37.8,81.9,84.4,81.9C547.7,294.6,585.5,257.9,585.5,212.6z"/></g>
</svg>