<?xml version="1.0" encoding="UTF-8" standalone="no"?>
<svg
   xmlns:dc="http://purl.org/dc/elements/1.1/"
   xmlns:cc="http://creativecommons.org/ns#"
   xmlns:rdf="http://www.w3.org/1999/02/22-rdf-syntax-ns#"
   xmlns:svg="http://www.w3.org/2000/svg"
   xmlns="http://www.w3.org/2000/svg"
   xmlns:sodipodi="http://sodipodi.sourceforge.net/DTD/sodipodi-0.dtd"
   xmlns:inkscape="http://www.inkscape.org/namespaces/inkscape"
   version="1.1"
   x="0px"
   y="0px"
   viewBox="0 0 1000 1000"
   enable-background="new 0 0 1000 1000"
   xml:space="preserve"
   id="svg8"
   sodipodi:docname="anchor-end.svg"
   inkscape:export-filename="/home/andreas/projects/avnav/viewer/images/icons-new/anchor.png"
   inkscape:export-xdpi="39.18"
   inkscape:export-ydpi="39.18"
   inkscape:version="1.0.2 (1.0.2+r75+1)"><defs
   id="defs12" /><sodipodi:namedview
   pagecolor="#0"
   bordercolor="#666666"
   borderopacity="1"
   objecttolerance="10"
   gridtolerance="10"
   guidetolerance="10"
   inkscape:pageopacity="0"
   inkscape:pageshadow="2"
   inkscape:window-width="1680"
   inkscape:window-height="1026"
   id="namedview10"
   showgrid="false"
   inkscape:zoom="0.236"
   inkscape:cx="-83.788609"
   inkscape:cy="669.49153"
   inkscape:window-x="0"
   inkscape:window-y="0"
   inkscape:window-maximized="1"
   inkscape:current-layer="svg8"
   inkscape:document-rotation="0" />
<metadata
   id="metadata2"> Svg Vector Icons : http://www.onlinewebfonts.com/icon <rdf:RDF><cc:Work
     rdf:about=""><dc:format>image/svg+xml</dc:format><dc:type
       rdf:resource="http://purl.org/dc/dcmitype/StillImage" /><dc:title></dc:title></cc:Work></rdf:RDF></metadata>
<g
   id="g6"
   style="opacity:1"><path
     d="M990,612.3l-41.2,280.5l-83.4-81c-66.1,55.9-188.7,131.9-366.8,131.9c-179.1,0-303-74.2-368.9-127.3l-76.1,73.9L10,612.3l286.5,42.2l-78.9,76.6c55.4,41.1,142.3,90.7,228.8,90.7l-0.2-457.7c-63.2-22-108.7-80.1-108.7-149c0-87.7,73.3-158.9,163.7-158.9c90.4,0,163.7,71.1,163.7,158.9c0,70-46.9,128.7-111.6,149.9c0.4,89.3,1.8,458.5-0.1,458.5c82.8,0,168.2-53.9,223.9-97.4l-73.8-71.6L990,612.3z M585.5,212.6c0-45.2-37.8-81.9-84.4-81.9c-46.6,0-84.4,36.7-84.4,81.9s37.8,81.9,84.4,81.9C547.7,294.6,585.5,257.9,585.5,212.6z"
     id="path4"
     style="" /></g>
<path
   style="fill:none;fill-rule:evenodd;stroke:#000000;stroke-width:40.9;stroke-linecap:butt;stroke-linejoin:miter;stroke-opacity:1;stroke-miterlimit:4;stroke-dasharray:none"
   d="M 90.588586,938.35966 C 909.78235,119.16591 907.37087,120.26667 907.37087,120.26667"
   id="path849" /></svg>
