<?xml version="1.0" encoding="UTF-8"?>
<svg version="1.1" viewBox="0 0 100 76.631" xml:space="preserve" xmlns="http://www.w3.org/2000/svg">
<path d="m52.861 21.792c3.252-5.024 9.971-6.46 14.99-3.203 5.024 3.257 6.46 9.966 3.208 14.995-3.257 5.024-9.971 6.455-14.995 3.203-5.024-3.257-6.46-9.971-3.203-14.995zm-44.057 46.094c4.668-9.072 11.978-2.642 11.978-2.642-4.424 0.391-4.639 4.517-3.843 6.958 0.952 2.915 4.214 4.033 5.83 4.429h1.421c1.636-0.327 5.234-1.826 8.799-8.745 4.678-9.072 11.978-2.642 11.978-2.642-4.424 0.391-4.629 4.517-3.833 6.958 0.947 2.915 4.204 4.033 5.84 4.429h1.167c1.641-0.327 5.244-1.826 8.804-8.745 4.688-9.072 11.978-2.642 11.978-2.642-4.414 0.391-4.629 4.517-3.823 6.958 0.947 2.915 4.199 4.033 5.825 4.429h1.411c1.631-0.327 5.249-1.826 8.794-8.745 4.697-9.072 11.973-2.642 11.973-2.642-4.414 0.391-4.624 4.517-3.823 6.958 0.947 2.915 4.199 4.033 5.825 4.429h4.895v-13.086h-3.301c-1.602-0.391-4.795-1.484-5.728-4.316-0.781-2.393-0.581-6.421 3.76-6.797 0 0-7.153-6.265-11.758 2.573-1.235 2.383-2.471 4.077-3.633 5.327l-14.052-14.478-16.821-10.893-5.972-3.872v5e-3l-11.958-7.744-5.776-19.956c-0.723-2.505-3.33-3.901-5.85-3.223-2.505 0.728-3.95 3.345-3.223 5.85l6.265 21.646c0.322 1.094 1.016 2.031 1.973 2.651l13.433 8.696-14.98 23.125c-1.03-0.674-1.978-1.587-2.412-2.91-0.781-2.393-0.576-6.421 3.76-6.797 0 0-7.153-6.265-11.743 2.573-3.516 6.743-7.056 8.218-8.652 8.54h-3.332v13.086c1.631-0.327 5.229-1.826 8.804-8.745z"/>
</svg>
