<?xml version="1.0" encoding="UTF-8" standalone="no"?>
<svg
   height="24px"
   viewBox="0 -960 960 960"
   width="24px"
   fill="#1f1f1f"
   version="1.1"
   id="svg1398"
   sodipodi:docname="list-200-ar.svg"
   inkscape:version="1.2.2 (b0a8486541, 2022-12-01)"
   xmlns:inkscape="http://www.inkscape.org/namespaces/inkscape"
   xmlns:sodipodi="http://sodipodi.sourceforge.net/DTD/sodipodi-0.dtd"
   xmlns="http://www.w3.org/2000/svg"
   xmlns:svg="http://www.w3.org/2000/svg">
  <defs
     id="defs1402">
    <marker
       style="overflow:visible"
       id="TriangleStart"
       refX="0"
       refY="0"
       orient="auto-start-reverse"
       inkscape:stockid="TriangleStart"
       markerWidth="5.3244081"
       markerHeight="6.155385"
       viewBox="0 0 5.3244081 6.1553851"
       inkscape:isstock="true"
       inkscape:collect="always"
       preserveAspectRatio="xMidYMid">
      <path
         transform="scale(0.5)"
         style="fill:context-stroke;fill-rule:evenodd;stroke:context-stroke;stroke-width:1pt"
         d="M 5.77,0 -2.88,5 V -5 Z"
         id="path135" />
    </marker>
  </defs>
  <sodipodi:namedview
     id="namedview1400"
     pagecolor="#ffffff"
     bordercolor="#000000"
     borderopacity="0.25"
     inkscape:showpageshadow="2"
     inkscape:pageopacity="0.0"
     inkscape:pagecheckerboard="0"
     inkscape:deskcolor="#d1d1d1"
     showgrid="false"
     inkscape:zoom="30.958333"
     inkscape:cx="12"
     inkscape:cy="12"
     inkscape:window-width="1920"
     inkscape:window-height="1012"
     inkscape:window-x="0"
     inkscape:window-y="0"
     inkscape:window-maximized="1"
     inkscape:current-layer="svg1398" />
  <path
     d="m 317.77853,-679.36385 v -40 h 493.85 v 40 z m 0,135.38 v -40 h 493.85 v 40 z m 0,135.38 v -40 h 493.85 v 40 z m -121.53,-266.15 q -10.47,0 -17.54,-7.3 -7.08,-7.3 -7.08,-18.08 0,-10.14 7.08,-16.99 7.07,-6.86 17.54,-6.86 10.46,0 17.53,6.86 7.08,6.85 7.08,16.99 0,10.78 -7.08,18.08 -7.07,7.3 -17.53,7.3 z m 0,134.62 q -10.47,0 -17.54,-6.86 -7.08,-6.86 -7.08,-16.99 0,-11.62 7.08,-18.5 7.07,-6.88 17.54,-6.88 10.46,0 17.53,6.88 7.08,6.88 7.08,18.5 0,10.13 -7.08,16.99 -7.07,6.86 -17.53,6.86 z m 0,136.15 q -10.47,0 -17.54,-7.3 -7.08,-7.3 -7.08,-18.08 0,-10.14 7.08,-16.99 7.07,-6.86 17.54,-6.86 10.46,0 17.53,6.86 7.08,6.85 7.08,16.99 0,10.78 -7.08,18.08 -7.07,7.3 -17.53,7.3 z"
     id="path1396" />
  <path
     style="fill:none;fill-opacity:1;stroke:#000000;stroke-width:20;stroke-linecap:round;stroke-linejoin:bevel;stroke-dasharray:none;stroke-opacity:1;marker-start:url(#TriangleStart);paint-order:normal"
     d="m 719.82435,-178.30405 c -515.53164,0 -515.53164,2.584 -515.53164,2.584"
     id="path798" />
</svg>
