<?xml version="1.0" encoding="UTF-8" standalone="no"?>
<!-- Created with Inkscape (http://www.inkscape.org/) -->

<svg
   xmlns:dc="http://purl.org/dc/elements/1.1/"
   xmlns:cc="http://creativecommons.org/ns#"
   xmlns:rdf="http://www.w3.org/1999/02/22-rdf-syntax-ns#"
   xmlns:svg="http://www.w3.org/2000/svg"
   xmlns="http://www.w3.org/2000/svg"
   xmlns:sodipodi="http://sodipodi.sourceforge.net/DTD/sodipodi-0.dtd"
   xmlns:inkscape="http://www.inkscape.org/namespaces/inkscape"
   id="svg29947"
   version="1.1"
   inkscape:version="0.91 r"
   xml:space="preserve"
   width="256"
   height="256"
   viewBox="0 0 256 255.99999"
   sodipodi:docname="boat.svg"><metadata
     id="metadata29953"><rdf:RDF><cc:Work
         rdf:about=""><dc:format>image/svg+xml</dc:format><dc:type
           rdf:resource="http://purl.org/dc/dcmitype/StillImage" /><dc:title></dc:title></cc:Work></rdf:RDF></metadata><defs
     id="defs29951"><clipPath
       clipPathUnits="userSpaceOnUse"
       id="clipPath29967"><path
         d="m 0,841.89 595.28,0 L 595.28,0 0,0 0,841.89 Z"
         id="path29969"
         inkscape:connector-curvature="0" /></clipPath></defs><sodipodi:namedview
     pagecolor="#ffffff"
     bordercolor="#666666"
     borderopacity="1"
     objecttolerance="10"
     gridtolerance="10"
     guidetolerance="10"
     inkscape:pageopacity="0"
     inkscape:pageshadow="2"
     inkscape:window-width="1918"
     inkscape:window-height="1005"
     id="namedview29949"
     showgrid="false"
     inkscape:zoom="0.89702926"
     inkscape:cx="217.30069"
     inkscape:cy="346.96173"
     inkscape:window-x="0"
     inkscape:window-y="24"
     inkscape:window-maximized="0"
     inkscape:current-layer="g29955" /><g
     id="g29955"
     inkscape:groupmode="layer"
     inkscape:label="Sail-Boat-256x"
     transform="matrix(1.25,0,0,-1.25,0,255.99995)"><path
       d="m 194.71372,-3.3896484e-5 -194.71372,0 L 0,204.79997 l 194.71372,0 0,-204.800003896484 z"
       style="fill:none;fill-opacity:1;fill-rule:nonzero;stroke:none"
       id="path29957"
       inkscape:connector-curvature="0" /><g
       id="g29959"
       transform="matrix(0.76042522,0,0,0.76042522,115.61657,197.51852)"
       style="fill:#000000;fill-opacity:1"><path
         d="m 0,0 0,-171.071 -137.268,0 L 0,0 Z"
         style="fill:#000000;fill-opacity:1;fill-rule:nonzero;stroke:none"
         id="path29961"
         inkscape:connector-curvature="0" /></g><g
       id="g29963"
       transform="matrix(0.79981567,0,0,0.76042522,-135.96866,-222.75975)"><g
         id="g29965"
         clip-path="url(#clipPath29967)"><g
           id="g29971"
           transform="translate(333.3096,511.2012)"
           style="fill:#000000;fill-opacity:1"><path
             d="m 0,0 0,-129.584 80.926,0 c 0,0 0.186,40.916 -14.247,66.765 C 45.329,-24.585 11.268,-6.659 0,0"
             style="fill:#000000;fill-opacity:1;fill-rule:nonzero;stroke:none"
             id="path29973"
             inkscape:connector-curvature="0" /></g><g
           id="g29975"
           transform="translate(219.0913,372.6533)"
           style="fill:#000000;fill-opacity:1"><path
             d="m 0,0 183.876,0 c 0,0 -19.207,-36.623 -43.536,-38.415 -24.329,-1.792 -18.695,6.914 -31.5,6.146 -20.136,-1.207 -22.351,-6.337 -30.291,-6.39 -7.94,-0.053 -20.416,6.391 -28.611,5.879 -8.194,-0.513 -22.279,-6.041 -30.475,-5.838 C 11.268,-38.415 0,-33.549 0,-33.549 L 0,0 Z"
             style="fill:#000000;fill-opacity:1;fill-rule:nonzero;stroke:none"
             id="path29977"
             inkscape:connector-curvature="0" /></g><g
           id="g29979"
           transform="translate(170,316.8242)"
           style="fill:#000000;fill-opacity:1"><path
             d="m 0,0 c 0,0 9.922,-5.54 35.196,4.084 10.756,4.096 24.651,-6.902 36.176,-5.895 17.754,1.553 19.463,7.446 29.707,6.677 10.243,-0.768 18.294,-7.326 26.561,-6.864 8.267,0.462 22.866,7.889 29.78,7.12 6.914,-0.768 20.204,-6.249 27.401,-7.143 6.43,-0.799 24.585,7.655 29.707,7.399 5.122,-0.256 30.988,-9.219 34.829,-8.707 3.842,0.512 6.702,-0.022 6.702,-0.022 l 0,-20.532 L 0,-23.883 0,0 Z"
             style="fill:#000000;fill-opacity:1;fill-rule:nonzero;stroke:none"
             id="path29981"
             inkscape:connector-curvature="0" /></g></g></g></g></svg>