<svg xmlns="http://www.w3.org/2000/svg" height="24" viewBox="0 96 960 960" width="24"><path d="m791 1001-91-91q-49 32-104.5 49T480 976q-83 0-156-31.5T197 859q-54-54-85.5-127T80 576q0-60 17-115.5T146 356l-91-91 57-57 736 736-57 57ZM480 896q43 0 83.5-11t78.5-33L204 414q-22 38-33 78.5T160 576q0 133 93.5 226.5T480 896Zm334-100-58-58q22-38 33-78.5t11-83.5q0-133-93.5-226.5T480 256q-43 0-83.5 11T318 300l-58-58q49-32 104.5-49T480 176q83 0 156 31.5T763 293q54 54 85.5 127T880 576q0 60-17 115.5T814 796ZM537 519ZM423 633Z"/></svg>